<svg xmlns="http://www.w3.org/2000/svg" viewBox="0 0 1200 1000" width="1200" height="1000" font-family="Helvetica, Arial, sans-serif">
<title>The Crown, Rev G</title>
<rect width="1200" height="1000" fill="#F7F5F0"/>
<polygon points="490.0,117.9 500.6,118.0 511.2,118.5 521.8,119.1 532.4,120.1 542.9,121.4 553.4,122.9 563.9,124.7 574.3,126.7 584.6,129.1 594.9,131.7 605.2,134.5 615.3,137.7 625.4,141.1 635.3,144.7 645.2,148.6 654.9,152.8 664.6,157.2 674.1,161.9 683.5,166.8 692.8,172.0 701.9,177.4 710.9,183.0 719.7,188.9 728.4,195.0 736.9,201.4 745.3,207.9 753.5,214.7 761.5,221.6 769.3,228.8 776.9,236.2 784.4,243.8 791.6,251.5 798.6,259.5 805.4,267.6 812.0,275.9 818.4,284.4 824.6,293.1 830.5,301.9 836.2,310.8 841.7,319.9 846.9,329.2 851.9,338.5 856.6,348.0 861.1,357.6 865.3,367.4 869.3,377.2 873.1,387.1 876.5,397.2 879.7,407.3 882.7,417.5 885.3,427.8 887.7,438.1 889.8,448.5 891.7,459.0 893.3,469.5 894.6,480.0 895.6,490.5 896.4,501.1 896.9,511.7 897.1,522.3 897.0,533.0 896.7,543.6 896.1,554.2 895.2,564.7 894.0,575.3 892.5,585.8 890.8,596.3 888.8,606.7 886.6,617.1 884.0,627.4 881.2,637.6 878.1,647.8 874.8,657.8 871.2,667.8 867.4,677.7 863.3,687.5 858.9,697.2 854.3,706.7 849.4,716.2 844.3,725.5 839.0,734.6 833.4,743.7 827.6,752.5 821.5,761.3 815.2,769.8 808.8,778.2 802.0,786.5 795.1,794.5 788.0,802.4 780.7,810.0 773.1,817.5 765.4,824.8 757.5,831.9 749.4,838.7 741.1,845.4 732.7,851.8 724.1,858.1 715.3,864.0 706.4,869.8 697.4,875.3 688.2,880.6 678.8,885.7 669.4,890.5 659.8,895.0 650.1,899.3 640.3,903.4 630.3,907.1 620.3,910.7 610.2,913.9 600.1,916.9 589.8,919.7 579.5,922.1 569.1,924.3 558.7,926.3 548.2,927.9 537.7,929.3 527.1,930.4 516.5,931.2 505.9,931.8 495.3,932.1 484.7,932.1 474.1,931.8 463.5,931.2 452.9,930.4 442.3,929.3 431.8,927.9 421.3,926.3 410.9,924.3 400.5,922.1 390.2,919.7 379.9,916.9 369.8,913.9 359.7,910.7 349.7,907.1 339.7,903.4 329.9,899.3 320.2,895.0 310.6,890.5 301.2,885.7 291.8,880.6 282.6,875.3 273.6,869.8 264.7,864.0 255.9,858.1 247.3,851.8 238.9,845.4 230.6,838.7 222.5,831.9 214.6,824.8 206.9,817.5 199.3,810.0 192.0,802.4 184.9,794.5 178.0,786.5 171.2,778.2 164.8,769.8 158.5,761.3 152.4,752.5 146.6,743.7 141.0,734.6 135.7,725.5 130.6,716.2 125.7,706.7 121.1,697.2 116.7,687.5 112.6,677.7 108.8,667.8 105.2,657.8 101.9,647.8 98.8,637.6 96.0,627.4 93.4,617.1 91.2,606.7 89.2,596.3 87.5,585.8 86.0,575.3 84.8,564.7 83.9,554.2 83.3,543.6 83.0,533.0 82.9,522.3 83.1,511.7 83.6,501.1 84.4,490.5 85.4,480.0 86.7,469.5 88.3,459.0 90.2,448.5 92.3,438.1 94.7,427.8 97.3,417.5 100.3,407.3 103.5,397.2 106.9,387.1 110.7,377.2 114.7,367.4 118.9,357.6 123.4,348.0 128.1,338.5 133.1,329.2 138.3,319.9 143.8,310.8 149.5,301.9 155.4,293.1 161.6,284.4 168.0,275.9 174.6,267.6 181.4,259.5 188.4,251.5 195.6,243.8 203.1,236.2 210.7,228.8 218.5,221.6 226.5,214.7 234.7,207.9 243.1,201.4 251.6,195.0 260.3,188.9 269.1,183.0 278.1,177.4 287.2,172.0 296.5,166.8 305.9,161.9 315.4,157.2 325.1,152.8 334.8,148.6 344.7,144.7 354.6,141.1 364.7,137.7 374.8,134.5 385.1,131.7 395.4,129.1 405.7,126.7 416.1,124.7 426.6,122.9 437.1,121.4 447.6,120.1 458.2,119.1 468.8,118.5 479.4,118.0 490.0,117.9 490.0,194.6 481.4,194.7 472.8,195.0 464.2,195.6 455.6,196.4 447.1,197.4 438.5,198.6 430.0,200.1 421.6,201.8 413.2,203.7 404.8,205.8 396.5,208.1 388.3,210.6 380.2,213.4 372.1,216.4 364.1,219.5 356.1,222.9 348.3,226.5 340.6,230.3 332.9,234.3 325.4,238.5 318.0,242.9 310.7,247.5 303.5,252.2 296.5,257.2 289.6,262.3 282.8,267.6 276.2,273.1 269.7,278.8 263.3,284.6 257.1,290.6 251.1,296.8 245.2,303.1 239.5,309.5 234.0,316.1 228.6,322.9 223.5,329.8 218.5,336.8 213.6,343.9 209.0,351.2 204.6,358.6 200.3,366.1 196.3,373.7 192.5,381.4 188.8,389.2 185.4,397.1 182.1,405.1 179.1,413.1 176.3,421.3 173.7,429.5 171.3,437.8 169.2,446.1 167.2,454.5 165.5,462.9 164.0,471.4 162.7,479.9 161.6,488.5 160.8,497.0 160.2,505.6 159.8,514.2 159.6,522.8 159.7,531.5 159.9,540.1 160.4,548.7 161.2,557.3 162.1,565.8 163.3,574.3 164.7,582.8 166.3,591.3 168.2,599.7 170.2,608.1 172.5,616.4 175.0,624.6 177.7,632.8 180.6,640.9 183.7,648.9 187.1,656.9 190.6,664.7 194.4,672.5 198.3,680.2 202.4,687.7 206.8,695.1 211.3,702.5 216.0,709.7 220.9,716.8 226.0,723.7 231.3,730.5 236.7,737.2 242.4,743.7 248.1,750.1 254.1,756.3 260.2,762.4 266.5,768.3 272.9,774.1 279.5,779.6 286.2,785.0 293.0,790.3 300.0,795.3 307.1,800.2 314.3,804.8 321.7,809.3 329.2,813.6 336.7,817.7 344.4,821.6 352.2,825.3 360.1,828.8 368.1,832.1 376.1,835.1 384.2,838.0 392.4,840.7 400.7,843.1 409.0,845.3 417.4,847.3 425.8,849.1 434.3,850.7 442.8,852.0 451.3,853.1 459.9,854.0 468.5,854.7 477.1,855.1 485.7,855.4 494.3,855.4 502.9,855.1 511.5,854.7 520.1,854.0 528.7,853.1 537.2,852.0 545.7,850.7 554.2,849.1 562.6,847.3 571.0,845.3 579.3,843.1 587.6,840.7 595.8,838.0 603.9,835.1 611.9,832.1 619.9,828.8 627.8,825.3 635.6,821.6 643.3,817.7 650.8,813.6 658.3,809.3 665.7,804.8 672.9,800.2 680.0,795.3 687.0,790.3 693.8,785.0 700.5,779.6 707.1,774.1 713.5,768.3 719.8,762.4 725.9,756.3 731.9,750.1 737.6,743.7 743.3,737.2 748.7,730.5 754.0,723.7 759.1,716.8 764.0,709.7 768.7,702.5 773.2,695.1 777.6,687.7 781.7,680.2 785.6,672.5 789.4,664.7 792.9,656.9 796.3,648.9 799.4,640.9 802.3,632.8 805.0,624.6 807.5,616.4 809.8,608.1 811.8,599.7 813.7,591.3 815.3,582.8 816.7,574.3 817.9,565.8 818.8,557.3 819.6,548.7 820.1,540.1 820.3,531.5 820.4,522.8 820.2,514.2 819.8,505.6 819.2,497.0 818.4,488.5 817.3,479.9 816.0,471.4 814.5,462.9 812.8,454.5 810.8,446.1 808.7,437.8 806.3,429.5 803.7,421.3 800.9,413.1 797.9,405.1 794.6,397.1 791.2,389.2 787.5,381.4 783.7,373.7 779.7,366.1 775.4,358.6 771.0,351.2 766.4,343.9 761.5,336.8 756.5,329.8 751.4,322.9 746.0,316.1 740.5,309.5 734.8,303.1 728.9,296.8 722.9,290.6 716.7,284.6 710.3,278.8 703.8,273.1 697.2,267.6 690.4,262.3 683.5,257.2 676.5,252.2 669.3,247.5 662.0,242.9 654.6,238.5 647.1,234.3 639.4,230.3 631.7,226.5 623.9,222.9 615.9,219.5 607.9,216.4 599.8,213.4 591.7,210.6 583.5,208.1 575.2,205.8 566.8,203.7 558.4,201.8 550.0,200.1 541.5,198.6 532.9,197.4 524.4,196.4 515.8,195.6 507.2,195.0 498.6,194.7 490.0,194.6" fill="#FFFFFF" fill-opacity="1.00" stroke="#33302C" stroke-width="1.00"/>
<polygon points="490.0,175.4 499.1,175.5 508.2,175.9 517.3,176.5 526.4,177.3 535.4,178.4 544.5,179.7 553.4,181.2 562.4,183.0 571.3,185.0 580.1,187.2 588.9,189.7 597.6,192.4 606.2,195.3 614.8,198.5 623.3,201.8 631.6,205.4 639.9,209.2 648.1,213.2 656.2,217.4 664.1,221.9 672.0,226.5 679.7,231.4 687.3,236.4 694.7,241.7 702.1,247.1 709.2,252.7 716.3,258.5 723.1,264.5 729.8,270.7 736.4,277.0 742.8,283.5 749.0,290.2 755.0,297.0 760.9,304.0 766.5,311.1 772.0,318.4 777.3,325.8 782.4,333.4 787.3,341.1 792.0,348.9 796.5,356.8 800.7,364.9 804.8,373.0 808.7,381.3 812.3,389.6 815.7,398.1 818.9,406.6 821.9,415.2 824.6,423.9 827.2,432.7 829.5,441.5 831.5,450.4 833.3,459.3 834.9,468.3 836.3,477.3 837.4,486.3 838.3,495.4 839.0,504.5 839.4,513.6 839.6,522.7 839.5,531.8 839.2,540.9 838.7,550.0 837.9,559.1 836.9,568.2 835.7,577.2 834.2,586.2 832.5,595.2 830.5,604.1 828.3,612.9 825.9,621.7 823.3,630.4 820.4,639.1 817.4,647.6 814.0,656.1 810.5,664.5 806.8,672.9 802.8,681.1 798.6,689.2 794.2,697.1 789.7,705.0 784.9,712.8 779.9,720.4 774.7,727.9 769.3,735.2 763.7,742.4 758.0,749.5 752.0,756.4 745.9,763.2 739.6,769.8 733.1,776.2 726.5,782.4 719.7,788.5 712.8,794.4 705.7,800.1 698.4,805.7 691.0,811.0 683.5,816.1 675.8,821.1 668.1,825.8 660.2,830.4 652.1,834.7 644.0,838.8 635.8,842.7 627.5,846.4 619.0,849.9 610.5,853.1 601.9,856.2 593.2,859.0 584.5,861.6 575.7,863.9 566.8,866.0 557.9,867.9 549.0,869.6 540.0,871.0 530.9,872.2 521.9,873.1 512.8,873.8 503.7,874.3 494.6,874.5 485.4,874.5 476.3,874.3 467.2,873.8 458.1,873.1 449.1,872.2 440.0,871.0 431.0,869.6 422.1,867.9 413.2,866.0 404.3,863.9 395.5,861.6 386.8,859.0 378.1,856.2 369.5,853.1 361.0,849.9 352.5,846.4 344.2,842.7 336.0,838.8 327.9,834.7 319.8,830.4 311.9,825.8 304.2,821.1 296.5,816.1 289.0,811.0 281.6,805.7 274.3,800.1 267.2,794.4 260.3,788.5 253.5,782.4 246.9,776.2 240.4,769.8 234.1,763.2 228.0,756.4 222.0,749.5 216.3,742.4 210.7,735.2 205.3,727.9 200.1,720.4 195.1,712.8 190.3,705.0 185.8,697.1 181.4,689.2 177.2,681.1 173.2,672.9 169.5,664.5 166.0,656.1 162.6,647.6 159.6,639.1 156.7,630.4 154.1,621.7 151.7,612.9 149.5,604.1 147.5,595.2 145.8,586.2 144.3,577.2 143.1,568.2 142.1,559.1 141.3,550.0 140.8,540.9 140.5,531.8 140.4,522.7 140.6,513.6 141.0,504.5 141.7,495.4 142.6,486.3 143.7,477.3 145.1,468.3 146.7,459.3 148.5,450.4 150.5,441.5 152.8,432.7 155.4,423.9 158.1,415.2 161.1,406.6 164.3,398.1 167.7,389.6 171.3,381.3 175.2,373.0 179.3,364.9 183.5,356.8 188.0,348.9 192.7,341.1 197.6,333.4 202.7,325.8 208.0,318.4 213.5,311.1 219.1,304.0 225.0,297.0 231.0,290.2 237.2,283.5 243.6,277.0 250.2,270.7 256.9,264.5 263.7,258.5 270.8,252.7 277.9,247.1 285.3,241.7 292.7,236.4 300.3,231.4 308.0,226.5 315.9,221.9 323.8,217.4 331.9,213.2 340.1,209.2 348.4,205.4 356.7,201.8 365.2,198.5 373.8,195.3 382.4,192.4 391.1,189.7 399.9,187.2 408.7,185.0 417.6,183.0 426.6,181.2 435.5,179.7 444.6,178.4 453.6,177.3 462.7,176.5 471.8,175.9 480.9,175.5 490.0,175.4 490.0,185.8 481.2,185.9 472.3,186.2 463.5,186.8 454.7,187.6 445.9,188.6 437.1,189.9 428.4,191.4 419.8,193.1 411.1,195.0 402.6,197.2 394.0,199.6 385.6,202.2 377.2,205.0 368.9,208.1 360.7,211.4 352.6,214.8 344.5,218.5 336.6,222.4 328.7,226.5 321.0,230.8 313.4,235.3 305.9,240.0 298.5,244.9 291.3,250.0 284.2,255.3 277.2,260.8 270.4,266.4 263.8,272.2 257.3,278.2 250.9,284.3 244.7,290.6 238.7,297.1 232.8,303.8 227.1,310.5 221.6,317.5 216.3,324.5 211.2,331.7 206.2,339.1 201.5,346.5 196.9,354.1 192.6,361.8 188.4,369.6 184.5,377.5 180.7,385.5 177.2,393.6 173.9,401.8 170.8,410.1 167.9,418.5 165.2,426.9 162.8,435.4 160.6,444.0 158.6,452.6 156.8,461.3 155.2,470.0 153.9,478.7 152.8,487.5 152.0,496.3 151.3,505.1 150.9,513.9 150.8,522.8 150.8,531.6 151.1,540.5 151.6,549.3 152.4,558.1 153.3,566.9 154.6,575.7 156.0,584.4 157.7,593.1 159.5,601.7 161.7,610.3 164.0,618.8 166.5,627.3 169.3,635.7 172.3,644.0 175.5,652.3 179.0,660.4 182.6,668.5 186.4,676.4 190.5,684.3 194.7,692.1 199.2,699.7 203.8,707.2 208.7,714.6 213.7,721.9 219.0,729.0 224.4,736.0 230.0,742.9 235.7,749.6 241.7,756.1 247.8,762.5 254.1,768.8 260.5,774.8 267.1,780.7 273.8,786.5 280.7,792.0 287.7,797.4 294.9,802.5 302.2,807.5 309.6,812.3 317.2,816.9 324.9,821.3 332.6,825.5 340.5,829.5 348.5,833.3 356.6,836.9 364.8,840.3 373.0,843.5 381.4,846.4 389.8,849.1 398.3,851.6 406.8,853.9 415.4,856.0 424.1,857.8 432.8,859.4 441.5,860.8 450.3,861.9 459.1,862.8 467.9,863.5 476.7,864.0 485.6,864.2 494.4,864.2 503.3,864.0 512.1,863.5 520.9,862.8 529.7,861.9 538.5,860.8 547.2,859.4 555.9,857.8 564.6,856.0 573.2,853.9 581.7,851.6 590.2,849.1 598.6,846.4 607.0,843.5 615.2,840.3 623.4,836.9 631.5,833.3 639.5,829.5 647.4,825.5 655.1,821.3 662.8,816.9 670.4,812.3 677.8,807.5 685.1,802.5 692.3,797.4 699.3,792.0 706.2,786.5 712.9,780.7 719.5,774.8 725.9,768.8 732.2,762.5 738.3,756.1 744.3,749.6 750.0,742.9 755.6,736.0 761.0,729.0 766.3,721.9 771.3,714.6 776.2,707.2 780.8,699.7 785.3,692.1 789.5,684.3 793.6,676.4 797.4,668.5 801.0,660.4 804.5,652.3 807.7,644.0 810.7,635.7 813.5,627.3 816.0,618.8 818.3,610.3 820.5,601.7 822.3,593.1 824.0,584.4 825.4,575.7 826.7,566.9 827.6,558.1 828.4,549.3 828.9,540.5 829.2,531.6 829.2,522.8 829.1,513.9 828.7,505.1 828.0,496.3 827.2,487.5 826.1,478.7 824.8,470.0 823.2,461.3 821.4,452.6 819.4,444.0 817.2,435.4 814.8,426.9 812.1,418.5 809.2,410.1 806.1,401.8 802.8,393.6 799.3,385.5 795.5,377.5 791.6,369.6 787.4,361.8 783.1,354.1 778.5,346.5 773.8,339.1 768.8,331.7 763.7,324.5 758.4,317.5 752.9,310.5 747.2,303.8 741.3,297.1 735.3,290.6 729.1,284.3 722.7,278.2 716.2,272.2 709.6,266.4 702.8,260.8 695.8,255.3 688.7,250.0 681.5,244.9 674.1,240.0 666.6,235.3 659.0,230.8 651.3,226.5 643.4,222.4 635.5,218.5 627.4,214.8 619.3,211.4 611.1,208.1 602.8,205.0 594.4,202.2 586.0,199.6 577.4,197.2 568.9,195.0 560.2,193.1 551.6,191.4 542.9,189.9 534.1,188.6 525.3,187.6 516.5,186.8 507.7,186.2 498.8,185.9 490.0,185.8" fill="#F1E7DA" fill-opacity="1.00" stroke="#8A9395" stroke-width="0.60"/>
<polygon data-code="C-01" points="868.8,401.9 871.3,409.9 873.6,417.9 875.7,426.0 877.7,434.1 879.5,442.2 831.9,452.3 830.3,445.2 828.6,438.1 826.7,431.0 824.7,424.0 822.5,417.0" fill="#F1E7DA" fill-opacity="1.00" stroke="#33302C" stroke-width="0.80"/>
<polygon data-code="C-02" points="879.5,442.2 881.6,452.4 883.3,462.6 884.8,472.9 886.0,483.2 887.0,493.5 887.7,503.9 888.1,514.3 888.2,524.6 888.1,535.0 839.5,533.8 839.6,524.7 839.4,515.6 839.1,506.5 838.5,497.4 837.6,488.3 836.6,479.3 835.3,470.2 833.7,461.3 831.9,452.3" fill="#F1E7DA" fill-opacity="1.00" stroke="#33302C" stroke-width="0.80"/>
<polygon data-code="C-03" points="888.1,535.0 887.7,545.0 887.1,555.0 886.2,565.0 837.8,560.1 838.6,551.3 839.1,542.6 839.5,533.8" fill="#F1E7DA" fill-opacity="1.00" stroke="#33302C" stroke-width="0.80"/>
<polygon data-code="C-04" points="886.2,565.0 885.2,574.4 883.9,583.7 882.4,593.1 880.7,602.4 878.7,611.6 876.6,620.8 874.2,630.0 871.6,639.0 868.8,648.1 822.5,633.0 824.9,625.1 827.2,617.1 829.3,609.1 831.2,601.0 832.9,592.9 834.4,584.7 835.8,576.5 836.9,568.3 837.8,560.1" fill="#F1E7DA" fill-opacity="1.00" stroke="#33302C" stroke-width="0.80"/>
<polygon data-code="C-06" points="868.8,648.1 865.5,657.5 862.1,666.9 858.4,676.2 854.5,685.5 850.3,694.6 846.0,703.6 802.5,681.7 806.3,673.8 809.9,665.8 813.4,657.8 816.6,649.6 819.6,641.3 822.5,633.0" fill="#D5E0EC" fill-opacity="1.00" stroke="#33302C" stroke-width="0.80"/>
<polygon data-code="C-07" points="846.0,703.6 841.6,712.0 837.0,720.4 832.3,728.6 827.3,736.7 822.2,744.7 816.8,752.6 811.3,760.3 805.6,767.9 799.7,775.4 793.6,782.7 756.5,751.2 761.9,744.8 767.0,738.2 772.0,731.5 776.9,724.7 781.6,717.8 786.1,710.8 790.4,703.7 794.6,696.5 798.6,689.2 802.5,681.7" fill="#D5E0EC" fill-opacity="1.00" stroke="#33302C" stroke-width="0.80"/>
<polygon data-code="C-08" points="793.6,782.7 787.4,789.9 781.0,796.9 774.4,803.8 767.7,810.5 760.8,817.0 753.7,823.4 746.5,829.6 739.2,835.6 731.7,841.5 724.1,847.2 695.5,807.8 702.2,802.8 708.7,797.7 715.2,792.4 721.5,786.9 727.7,781.3 733.7,775.6 739.7,769.7 745.4,763.7 751.1,757.5 756.5,751.2" fill="#D5E0EC" fill-opacity="1.00" stroke="#33302C" stroke-width="0.80"/>
<polygon data-code="C-09" points="724.1,847.2 716.6,852.5 709.0,857.6 701.3,862.6 693.4,867.4 685.5,872.0 677.5,876.4 654.5,833.4 661.6,829.6 668.6,825.5 675.5,821.3 682.2,817.0 688.9,812.5 695.5,807.8" fill="#E9D8BC" fill-opacity="1.00" stroke="#33302C" stroke-width="0.80"/>
<polygon data-code="C-10" points="677.5,876.4 668.6,881.0 659.6,885.3 650.5,889.5 641.2,893.4 631.9,897.1 622.5,900.5 613.1,903.8 603.5,906.7 593.9,909.5 584.2,912.0 574.4,914.2 564.6,916.2 554.8,917.9 544.9,919.5 538.2,871.2 546.9,869.9 555.5,868.4 564.1,866.6 572.7,864.7 581.2,862.5 589.6,860.1 598.0,857.5 606.3,854.6 614.6,851.6 622.8,848.4 630.8,844.9 638.8,841.3 646.7,837.5 654.5,833.4" fill="#E9D8BC" fill-opacity="1.00" stroke="#33302C" stroke-width="0.80"/>
<polygon data-code="C-11" points="544.9,919.5 535.8,920.6 526.6,921.6 517.5,922.3 508.3,922.8 499.2,923.1 490.0,923.2 490.0,874.6 498.1,874.5 506.1,874.2 514.1,873.7 522.2,873.1 530.2,872.3 538.2,871.2" fill="#DCE7CF" fill-opacity="1.00" stroke="#33302C" stroke-width="0.80"/>
<polygon data-code="C-13" points="490.0,923.2 480.1,923.1 470.2,922.8 460.4,922.1 450.5,921.3 440.7,920.2 430.9,918.8 421.1,917.3 411.4,915.4 401.8,913.4 412.6,865.9 421.0,867.7 429.6,869.3 438.1,870.7 446.7,871.9 455.3,872.9 464.0,873.6 472.7,874.1 481.3,874.5 490.0,874.6" fill="#CFE8E4" fill-opacity="1.00" stroke="#33302C" stroke-width="0.80"/>
<polygon data-code="C-14" points="401.8,913.4 392.6,911.2 383.5,908.7 374.4,906.1 365.4,903.3 356.5,900.2 347.7,897.0 338.9,893.5 330.2,889.8 349.8,845.2 357.4,848.4 365.1,851.5 372.8,854.4 380.7,857.0 388.6,859.5 396.5,861.8 404.5,864.0 412.6,865.9" fill="#CFE8E4" fill-opacity="1.00" stroke="#33302C" stroke-width="0.80"/>
<polygon data-code="C-15" points="330.2,889.8 321.6,885.9 313.0,881.7 304.5,877.4 296.1,872.8 287.8,868.1 279.6,863.2 271.6,858.0 263.7,852.7 255.9,847.2 284.5,807.8 291.4,812.7 298.3,817.3 305.4,821.8 312.5,826.2 319.8,830.3 327.1,834.3 334.6,838.1 342.1,841.8 349.8,845.2" fill="#CFE8E4" fill-opacity="1.00" stroke="#33302C" stroke-width="0.80"/>
<polygon data-code="C-16" points="255.9,847.2 247.9,841.2 240.0,835.0 232.3,828.6 224.8,822.1 217.4,815.3 250.7,779.8 257.2,785.8 263.8,791.5 270.6,797.1 277.5,802.6 284.5,807.8" fill="#F0D9A6" fill-opacity="1.00" stroke="#33302C" stroke-width="0.80"/>
<polygon data-code="C-17" points="217.4,815.3 210.4,808.6 203.7,801.8 197.1,794.8 190.6,787.6 184.4,780.3 178.3,772.9 172.4,765.3 166.7,757.5 161.2,749.6 155.8,741.6 150.7,733.5 145.7,725.2 141.0,716.9 183.7,693.4 187.8,700.8 192.2,708.0 196.7,715.2 201.3,722.2 206.2,729.1 211.2,735.9 216.4,742.6 221.7,749.1 227.2,755.5 232.9,761.8 238.7,768.0 244.6,774.0 250.7,779.8" fill="#F0D9A6" fill-opacity="1.00" stroke="#33302C" stroke-width="0.80"/>
<polygon data-code="C-18" points="141.0,716.9 136.6,708.6 132.4,700.2 128.3,691.7 124.5,683.2 120.9,674.5 117.5,665.8 114.2,657.0 111.2,648.1 157.5,633.0 160.2,640.8 163.0,648.6 166.0,656.2 169.2,663.8 172.5,671.4 176.1,678.8 179.8,686.1 183.7,693.4" fill="#F0D9A6" fill-opacity="1.00" stroke="#33302C" stroke-width="0.80"/>
<polygon data-code="C-20" points="111.2,648.1 108.6,639.5 106.1,630.9 103.8,622.3 101.7,613.6 99.8,604.9 98.2,596.1 96.7,587.3 144.7,579.7 146.0,587.4 147.5,595.1 149.2,602.8 151.0,610.4 153.0,618.0 155.2,625.5 157.5,633.0" fill="#E3D9EE" fill-opacity="1.00" stroke="#33302C" stroke-width="0.80"/>
<polygon data-code="C-21" points="96.7,587.3 95.3,577.8 94.1,568.2 93.2,558.6 92.5,549.0 92.0,539.4 91.8,529.8 91.8,520.2 92.0,510.6 92.5,501.0 93.2,491.4 94.1,481.8 95.3,472.2 96.7,462.7 144.7,470.3 143.5,478.7 142.5,487.1 141.7,495.5 141.1,503.9 140.7,512.3 140.5,520.8 140.5,529.2 140.7,537.7 141.1,546.1 141.7,554.5 142.5,562.9 143.5,571.3 144.7,579.7" fill="#E9D8BC" fill-opacity="1.00" stroke="#33302C" stroke-width="0.80"/>
<polygon data-code="C-22" points="96.7,462.7 98.2,453.9 99.8,445.1 101.7,436.4 103.8,427.7 106.1,419.1 108.6,410.5 111.2,401.9 157.5,417.0 155.2,424.5 153.0,432.0 151.0,439.6 149.2,447.2 147.5,454.9 146.0,462.6 144.7,470.3" fill="#DCE7CF" fill-opacity="1.00" stroke="#33302C" stroke-width="0.80"/>
<polygon data-code="C-23" points="111.2,401.9 114.1,393.5 117.1,385.1 120.4,376.7 123.8,368.5 127.4,360.3 131.2,352.2 135.2,344.2 178.5,366.3 175.0,373.3 171.7,380.4 168.6,387.6 165.6,394.9 162.7,402.2 160.0,409.5 157.5,417.0" fill="#E8DDD3" fill-opacity="1.00" stroke="#33302C" stroke-width="0.80"/>
<polygon data-code="C-24" points="135.2,344.2 139.7,335.5 144.5,326.9 149.5,318.4 154.7,310.1 160.1,301.9 165.7,293.8 171.5,285.9 177.5,278.1 183.7,270.5 190.1,263.0 196.6,255.7 203.4,248.5 210.3,241.5 217.4,234.7 250.7,270.2 244.5,276.2 238.4,282.3 232.5,288.6 226.7,295.0 221.1,301.6 215.7,308.3 210.5,315.1 205.4,322.1 200.4,329.2 195.7,336.4 191.1,343.7 186.7,351.1 182.5,358.7 178.5,366.3" fill="#DCE7CF" fill-opacity="1.00" stroke="#33302C" stroke-width="0.80"/>
<polygon data-code="C-25" points="217.4,234.7 224.8,227.9 232.3,221.4 240.0,215.0 247.9,208.8 255.9,202.8 284.5,242.2 277.5,247.4 270.6,252.9 263.8,258.5 257.2,264.2 250.7,270.2" fill="#DCE7CF" fill-opacity="1.00" stroke="#33302C" stroke-width="0.80"/>
<polygon data-code="C-27" points="255.9,202.8 263.6,197.3 271.5,192.0 279.5,186.9 287.6,182.0 295.8,177.3 304.1,172.8 312.6,168.5 321.1,164.3 329.8,160.4 338.5,156.7 347.3,153.2 364.7,198.6 357.0,201.7 349.3,205.0 341.8,208.4 334.3,212.0 326.9,215.8 319.6,219.8 312.3,223.9 305.2,228.3 298.2,232.7 291.3,237.4 284.5,242.2" fill="#E8DDD3" fill-opacity="1.00" stroke="#33302C" stroke-width="0.80"/>
<polygon data-code="C-28" points="347.3,153.2 356.6,149.8 366.0,146.5 375.5,143.6 385.0,140.8 394.6,138.3 404.3,136.1 414.0,134.1 423.3,181.8 414.8,183.6 406.3,185.6 397.8,187.8 389.5,190.2 381.1,192.8 372.9,195.6 364.7,198.6" fill="#E8DDD3" fill-opacity="1.00" stroke="#33302C" stroke-width="0.80"/>
<polygon data-code="C-29" points="414.0,134.1 423.4,132.4 432.9,130.9 442.3,129.6 451.8,128.6 461.4,127.8 470.9,127.2 480.4,126.9 490.0,126.8 490.0,175.4 481.6,175.5 473.2,175.8 464.9,176.3 456.5,177.0 448.2,177.9 439.8,179.0 431.6,180.3 423.3,181.8" fill="#E8DDD3" fill-opacity="1.00" stroke="#33302C" stroke-width="0.80"/>
<polygon data-code="C-30" points="490.0,126.8 499.8,126.9 509.6,127.2 519.4,127.8 529.2,128.7 538.9,129.8 548.7,131.1 558.3,132.7 568.0,134.5 577.6,136.5 587.1,138.8 596.6,141.3 606.0,144.0 615.4,147.0 624.7,150.2 633.9,153.6 643.0,157.3 652.0,161.2 632.2,205.6 624.3,202.2 616.3,199.0 608.2,196.0 600.1,193.2 591.9,190.6 583.6,188.2 575.3,186.0 566.9,184.0 558.5,182.2 550.0,180.6 541.5,179.2 533.0,178.1 524.4,177.1 515.8,176.4 507.2,175.8 498.6,175.5 490.0,175.4" fill="#E9D8BC" fill-opacity="1.00" stroke="#33302C" stroke-width="0.80"/>
<polygon data-code="C-31" points="652.0,161.2 660.4,165.0 668.7,169.1 677.0,173.4 685.1,177.8 693.1,182.4 701.0,187.3 708.8,192.3 716.5,197.4 724.1,202.8 695.5,242.2 688.8,237.5 682.1,232.9 675.2,228.5 668.3,224.3 661.3,220.2 654.1,216.3 646.9,212.6 639.6,209.0 632.2,205.6" fill="#DCE7CF" fill-opacity="1.00" stroke="#33302C" stroke-width="0.80"/>
<polygon data-code="C-33" points="724.1,202.8 731.5,208.3 738.8,214.0 746.0,219.9 753.0,226.0 759.9,232.2 766.6,238.5 773.2,245.0 779.7,251.7 786.0,258.5 749.8,291.1 744.3,285.1 738.6,279.3 732.8,273.5 726.9,268.0 720.9,262.5 714.7,257.2 708.4,252.1 702.0,247.0 695.5,242.2" fill="#F0D9A6" fill-opacity="1.00" stroke="#33302C" stroke-width="0.80"/>
<polygon data-code="C-34" points="786.0,258.5 792.4,265.9 798.7,273.4 804.8,281.1 810.7,288.9 816.5,296.9 822.0,305.0 827.3,313.3 832.4,321.6 837.3,330.1 842.0,338.8 846.5,347.5 850.8,356.3 854.8,365.3 858.6,374.3 862.2,383.4 865.6,392.6 868.8,401.9 822.5,417.0 819.7,408.8 816.7,400.7 813.6,392.7 810.2,384.8 806.7,376.9 802.9,369.2 799.0,361.5 794.9,354.0 790.6,346.5 786.1,339.1 781.4,331.9 776.6,324.8 771.5,317.8 766.4,310.9 761.0,304.2 755.5,297.6 749.8,291.1" fill="#C9E0B5" fill-opacity="1.00" stroke="#33302C" stroke-width="0.80"/>
<line x1="798.6" y1="424.7" x2="882.8" y2="397.4" stroke="#1C2124" stroke-width="2.2"/>
<text x="941.4" y="525.0" font-size="12.5" font-weight="700" fill="#1C2124" text-anchor="middle" dominant-baseline="middle" transform="rotate(90.0 941.4 525.0)">1 · Arrival ▲</text>
<line x1="798.6" y1="625.3" x2="882.8" y2="652.6" stroke="#1C2124" stroke-width="2.2"/>
<text x="855.1" y="790.3" font-size="12.5" font-weight="700" fill="#1C2124" text-anchor="middle" dominant-baseline="middle" transform="rotate(-54.0 855.1 790.3)">2 · Master suite up</text>
<line x1="680.7" y1="787.5" x2="732.8" y2="859.1" stroke="#1C2124" stroke-width="2.2"/>
<text x="629.5" y="954.3" font-size="12.5" font-weight="700" fill="#1C2124" text-anchor="middle" dominant-baseline="middle" transform="rotate(-18.0 629.5 954.3)">3 · Salon ▲</text>
<line x1="490.0" y1="849.5" x2="490.0" y2="938.0" stroke="#1C2124" stroke-width="2.2"/>
<text x="350.5" y="954.3" font-size="12.5" font-weight="700" fill="#1C2124" text-anchor="middle" dominant-baseline="middle" transform="rotate(18.0 350.5 954.3)">4 · Wellness</text>
<line x1="299.3" y1="787.5" x2="247.2" y2="859.1" stroke="#1C2124" stroke-width="2.2"/>
<text x="124.9" y="790.3" font-size="12.5" font-weight="700" fill="#1C2124" text-anchor="middle" dominant-baseline="middle" transform="rotate(54.0 124.9 790.3)">5 · Dining ▲</text>
<line x1="181.4" y1="625.3" x2="97.2" y2="652.6" stroke="#1C2124" stroke-width="2.2"/>
<text x="38.6" y="525.0" font-size="12.5" font-weight="700" fill="#1C2124" text-anchor="middle" dominant-baseline="middle" transform="rotate(90.0 38.6 525.0)">6 · Sunset</text>
<line x1="181.4" y1="424.7" x2="97.2" y2="397.4" stroke="#1C2124" stroke-width="2.2"/>
<text x="124.9" y="259.7" font-size="12.5" font-weight="700" fill="#1C2124" text-anchor="middle" dominant-baseline="middle" transform="rotate(-54.0 124.9 259.7)">7 · Library ▲</text>
<line x1="299.3" y1="262.5" x2="247.2" y2="190.9" stroke="#1C2124" stroke-width="2.2"/>
<text x="350.5" y="95.7" font-size="12.5" font-weight="700" fill="#1C2124" text-anchor="middle" dominant-baseline="middle" transform="rotate(-18.0 350.5 95.7)">8 · Studio</text>
<line x1="490.0" y1="200.5" x2="490.0" y2="112.0" stroke="#1C2124" stroke-width="2.2"/>
<text x="629.5" y="95.7" font-size="12.5" font-weight="700" fill="#1C2124" text-anchor="middle" dominant-baseline="middle" transform="rotate(18.0 629.5 95.7)">9 · Observatory ▲</text>
<line x1="680.7" y1="262.5" x2="732.8" y2="190.9" stroke="#1C2124" stroke-width="2.2"/>
<text x="855.1" y="259.7" font-size="12.5" font-weight="700" fill="#1C2124" text-anchor="middle" dominant-baseline="middle" transform="rotate(54.0 855.1 259.7)">10 · Garden room</text>
<text x="851.2" y="428.2" font-size="8.6" font-weight="700" fill="#1C2124" text-anchor="middle" dominant-baseline="middle" transform="rotate(75.0 851.2 428.2)">01</text>
<text x="862.3" y="490.6" font-size="8.6" font-weight="700" fill="#1C2124" text-anchor="middle" dominant-baseline="middle" transform="rotate(84.7 862.3 490.6)">02</text>
<text x="863.2" y="548.5" font-size="8.6" font-weight="700" fill="#1C2124" text-anchor="middle" dominant-baseline="middle" transform="rotate(-86.4 863.2 548.5)">03</text>
<text x="855.9" y="602.0" font-size="8.6" font-weight="700" fill="#1C2124" text-anchor="middle" dominant-baseline="middle" transform="rotate(-78.1 855.9 602.0)">04</text>
<text x="835.9" y="667.0" font-size="8.6" font-weight="700" fill="#1C2124" text-anchor="middle" dominant-baseline="middle" transform="rotate(-67.7 835.9 667.0)">06</text>
<text x="801.9" y="731.3" font-size="8.6" font-weight="700" fill="#1C2124" text-anchor="middle" dominant-baseline="middle" transform="rotate(-56.5 801.9 731.3)">07</text>
<text x="744.2" y="799.2" font-size="8.6" font-weight="700" fill="#1C2124" text-anchor="middle" dominant-baseline="middle" transform="rotate(-42.8 744.2 799.2)">08</text>
<text x="688.4" y="842.0" font-size="8.6" font-weight="700" fill="#1C2124" text-anchor="middle" dominant-baseline="middle" transform="rotate(-32.0 688.4 842.0)">09</text>
<text x="605.5" y="880.6" font-size="8.6" font-weight="700" fill="#1C2124" text-anchor="middle" dominant-baseline="middle" transform="rotate(-18.0 605.5 880.6)">10</text>
<text x="515.8" y="898.0" font-size="8.6" font-weight="700" fill="#1C2124" text-anchor="middle" dominant-baseline="middle" transform="rotate(-4.0 515.8 898.0)">11</text>
<text x="448.3" y="896.6" font-size="8.6" font-weight="700" fill="#1C2124" text-anchor="middle" dominant-baseline="middle" transform="rotate(6.4 448.3 896.6)">13</text>
<text x="373.1" y="880.2" font-size="8.6" font-weight="700" fill="#1C2124" text-anchor="middle" dominant-baseline="middle" transform="rotate(18.2 373.1 880.2)">14</text>
<text x="304.0" y="849.4" font-size="8.6" font-weight="700" fill="#1C2124" text-anchor="middle" dominant-baseline="middle" transform="rotate(29.8 304.0 849.4)">15</text>
<text x="251.7" y="813.1" font-size="8.6" font-weight="700" fill="#1C2124" text-anchor="middle" dominant-baseline="middle" transform="rotate(39.6 251.7 813.1)">16</text>
<text x="194.6" y="754.2" font-size="8.6" font-weight="700" fill="#1C2124" text-anchor="middle" dominant-baseline="middle" transform="rotate(52.2 194.6 754.2)">17</text>
<text x="146.8" y="673.5" font-size="8.6" font-weight="700" fill="#1C2124" text-anchor="middle" dominant-baseline="middle" transform="rotate(66.6 146.8 673.5)">18</text>
<text x="126.4" y="612.3" font-size="8.6" font-weight="700" fill="#1C2124" text-anchor="middle" dominant-baseline="middle" transform="rotate(76.5 126.4 612.3)">20</text>
<text x="116.1" y="525.0" font-size="8.6" font-weight="700" fill="#1C2124" text-anchor="middle" dominant-baseline="middle" transform="rotate(90.0 116.1 525.0)">21</text>
<text x="126.4" y="437.7" font-size="8.6" font-weight="700" fill="#1C2124" text-anchor="middle" dominant-baseline="middle" transform="rotate(-76.5 126.4 437.7)">22</text>
<text x="144.5" y="381.9" font-size="8.6" font-weight="700" fill="#1C2124" text-anchor="middle" dominant-baseline="middle" transform="rotate(-67.5 144.5 381.9)">23</text>
<text x="191.0" y="300.5" font-size="8.6" font-weight="700" fill="#1C2124" text-anchor="middle" dominant-baseline="middle" transform="rotate(-53.1 191.0 300.5)">24</text>
<text x="251.7" y="236.9" font-size="8.6" font-weight="700" fill="#1C2124" text-anchor="middle" dominant-baseline="middle" transform="rotate(-39.6 251.7 236.9)">25</text>
<text x="311.6" y="196.4" font-size="8.6" font-weight="700" fill="#1C2124" text-anchor="middle" dominant-baseline="middle" transform="rotate(-28.5 311.6 196.4)">27</text>
<text x="386.9" y="165.6" font-size="8.6" font-weight="700" fill="#1C2124" text-anchor="middle" dominant-baseline="middle" transform="rotate(-16.0 386.9 165.6)">28</text>
<text x="454.2" y="152.8" font-size="8.6" font-weight="700" fill="#1C2124" text-anchor="middle" dominant-baseline="middle" transform="rotate(-5.5 454.2 152.8)">29</text>
<text x="567.7" y="159.3" font-size="8.6" font-weight="700" fill="#1C2124" text-anchor="middle" dominant-baseline="middle" transform="rotate(12.0 567.7 159.3)">30</text>
<text x="677.0" y="201.2" font-size="8.6" font-weight="700" fill="#1C2124" text-anchor="middle" dominant-baseline="middle" transform="rotate(30.0 677.0 201.2)">31</text>
<text x="740.2" y="247.1" font-size="8.6" font-weight="700" fill="#1C2124" text-anchor="middle" dominant-baseline="middle" transform="rotate(42.0 740.2 247.1)">33</text>
<text x="813.8" y="338.0" font-size="8.6" font-weight="700" fill="#1C2124" text-anchor="middle" dominant-baseline="middle" transform="rotate(60.0 813.8 338.0)">34</text>
<text x="261.1" y="753.9" font-size="10.0" font-weight="700" fill="#8A6A3E" text-anchor="middle" dominant-baseline="middle" transform="rotate(45.0 261.1 753.9)">C-GL the Glide</text>
<circle cx="490.0" cy="525.0" r="70.8" fill="#E6EBEF" stroke="#5E6A70" stroke-width="1.2"/>
<text x="490.0" y="521.0" font-size="12.0" font-weight="700" fill="#3B4A55" text-anchor="middle" dominant-baseline="middle">The Orb</text>
<text x="490.0" y="537.0" font-size="10.0" font-weight="400" fill="#3B4A55" text-anchor="middle" dominant-baseline="middle">O-00 to O-17</text>
<text x="490.0" y="643.0" font-size="11.0" font-weight="400" font-style="italic" fill="#6C777C" text-anchor="middle" dominant-baseline="middle">G-01 Stone Garden, 40 m below</text>
<text x="24.0" y="30.0" font-size="20.0" font-weight="700" fill="#1C2124" text-anchor="start" dominant-baseline="middle">The Crown · main floor, 41 m above the plain</text>
<text x="24.0" y="52.0" font-size="11.5" font-weight="400" fill="#4E575B" text-anchor="start" dominant-baseline="middle">Floor plans Rev G · north up · numbers are room codes: 10 is C-10 · ▲ a spire, with an upper floor</text>
<polygon points="1160.0,31.0 1167.0,57.0 1160.0,44.0 1153.0,57.0" fill="#1C2124" fill-opacity="1.00" stroke="#1C2124" stroke-width="0.50"/>
<text x="1160.0" y="20.0" font-size="12.0" font-weight="700" fill="#1C2124" text-anchor="middle" dominant-baseline="middle">N</text>
<line x1="28.0" y1="966.0" x2="175.5" y2="966.0" stroke="#1C2124" stroke-width="2"/>
<line x1="28.0" y1="961.0" x2="28.0" y2="971.0" stroke="#1C2124" stroke-width="1.4"/>
<line x1="101.8" y1="961.0" x2="101.8" y2="971.0" stroke="#1C2124" stroke-width="1.4"/>
<line x1="175.5" y1="961.0" x2="175.5" y2="971.0" stroke="#1C2124" stroke-width="1.4"/>
<text x="28.0" y="981.0" font-size="10.0" font-weight="400" fill="#1C2124" text-anchor="middle" dominant-baseline="middle">0</text>
<text x="101.8" y="981.0" font-size="10.0" font-weight="400" fill="#1C2124" text-anchor="middle" dominant-baseline="middle">25</text>
<text x="175.5" y="981.0" font-size="10.0" font-weight="400" fill="#1C2124" text-anchor="middle" dominant-baseline="middle">50 m</text>
<text x="1000.0" y="120.0" font-size="12.0" font-weight="700" fill="#1C2124" text-anchor="start" dominant-baseline="middle">Key</text>
<rect x="1000.0" y="136.0" width="14" height="11" fill="#E9D8BC" stroke="#33302C" stroke-width="0.8"/>
<text x="1020.0" y="142.0" font-size="10.5" font-weight="400" fill="#1C2124" text-anchor="start" dominant-baseline="middle">Living</text>
<rect x="1000.0" y="154.0" width="14" height="11" fill="#D5E0EC" stroke="#33302C" stroke-width="0.8"/>
<text x="1020.0" y="160.0" font-size="10.5" font-weight="400" fill="#1C2124" text-anchor="start" dominant-baseline="middle">Sleeping</text>
<rect x="1000.0" y="172.0" width="14" height="11" fill="#F0D9A6" stroke="#33302C" stroke-width="0.8"/>
<text x="1020.0" y="178.0" font-size="10.5" font-weight="400" fill="#1C2124" text-anchor="start" dominant-baseline="middle">Dining and kitchens</text>
<rect x="1000.0" y="190.0" width="14" height="11" fill="#DCE7CF" stroke="#33302C" stroke-width="0.8"/>
<text x="1020.0" y="196.0" font-size="10.5" font-weight="400" fill="#1C2124" text-anchor="start" dominant-baseline="middle">Library, music, art</text>
<rect x="1000.0" y="208.0" width="14" height="11" fill="#CFE8E4" stroke="#33302C" stroke-width="0.8"/>
<text x="1020.0" y="214.0" font-size="10.5" font-weight="400" fill="#1C2124" text-anchor="start" dominant-baseline="middle">Baths and sport</text>
<rect x="1000.0" y="226.0" width="14" height="11" fill="#E3D9EE" stroke="#33302C" stroke-width="0.8"/>
<text x="1020.0" y="232.0" font-size="10.5" font-weight="400" fill="#1C2124" text-anchor="start" dominant-baseline="middle">Guests</text>
<rect x="1000.0" y="244.0" width="14" height="11" fill="#E8DDD3" stroke="#33302C" stroke-width="0.8"/>
<text x="1020.0" y="250.0" font-size="10.5" font-weight="400" fill="#1C2124" text-anchor="start" dominant-baseline="middle">Work and making</text>
<rect x="1000.0" y="262.0" width="14" height="11" fill="#C9E0B5" stroke="#33302C" stroke-width="0.8"/>
<text x="1020.0" y="268.0" font-size="10.5" font-weight="400" fill="#1C2124" text-anchor="start" dominant-baseline="middle">Gardens</text>
<rect x="1000.0" y="280.0" width="14" height="11" fill="#F1E7DA" stroke="#33302C" stroke-width="0.8"/>
<text x="1020.0" y="286.0" font-size="10.5" font-weight="400" fill="#1C2124" text-anchor="start" dominant-baseline="middle">Arrival and transit</text>
<text x="1000.0" y="320.0" font-size="10.0" font-weight="700" fill="#2A6E8E" text-anchor="start" dominant-baseline="middle">Upper floors in the spires:</text>
<text x="1000.0" y="336.0" font-size="10.0" font-weight="400" fill="#2A6E8E" text-anchor="start" dominant-baseline="middle">C-05 Dock control (part 1)</text>
<text x="1000.0" y="352.0" font-size="10.0" font-weight="400" fill="#2A6E8E" text-anchor="start" dominant-baseline="middle">C-12 Sky lounge (part 3)</text>
<text x="1000.0" y="368.0" font-size="10.0" font-weight="400" fill="#2A6E8E" text-anchor="start" dominant-baseline="middle">C-19 Sky bar (part 5)</text>
<text x="1000.0" y="384.0" font-size="10.0" font-weight="400" fill="#2A6E8E" text-anchor="start" dominant-baseline="middle">C-26 Reading gallery (part 7)</text>
<text x="1000.0" y="400.0" font-size="10.0" font-weight="400" fill="#2A6E8E" text-anchor="start" dominant-baseline="middle">C-32 Telescope dome (part 9)</text>
</svg>