<svg xmlns="http://www.w3.org/2000/svg" viewBox="0 0 1200 1000" width="1200" height="1000" font-family="Helvetica, Arial, sans-serif">
<title>L1 Residence, Rev G</title>
<rect width="1200" height="1000" fill="#F7F5F0"/>
<polygon points="595.9,90.8 906.2,518.0 595.9,945.2 93.7,782.0 93.7,254.0" fill="#EFEBE3" fill-opacity="1.00" stroke="#1C2124" stroke-width="2.40"/>
<polygon data-code="L1-01" points="549.4,526.2 536.9,543.4 574.3,570.5 606.5,526.2" fill="#DCE7CF" fill-opacity="1.00" stroke="#33302C" stroke-width="0.90"/>
<polygon data-code="L1-02" points="536.9,543.4 505.9,586.1 543.3,613.2 574.3,570.5" fill="#E9D8BC" fill-opacity="1.00" stroke="#33302C" stroke-width="0.90"/>
<polygon data-code="L1-03" points="505.9,586.1 493.5,603.2 511.1,657.5 543.3,613.2" fill="#F0D9A6" fill-opacity="1.00" stroke="#33302C" stroke-width="0.90"/>
<polygon data-code="L1-05" points="622.8,526.2 599.5,558.3 636.9,585.4 679.9,526.2" fill="#E3E1DC" fill-opacity="1.00" stroke="#33302C" stroke-width="0.90"/>
<polygon data-code="L1-06" points="599.5,558.3 583.1,581.0 620.4,608.1 636.9,585.4" fill="#D5E0EC" fill-opacity="1.00" stroke="#33302C" stroke-width="0.90"/>
<polygon data-code="L1-07" points="583.1,581.0 555.9,618.3 593.3,645.5 620.4,608.1" fill="#C9E0B5" fill-opacity="1.00" stroke="#33302C" stroke-width="0.90"/>
<polygon data-code="L1-08" points="555.9,618.3 539.4,641.0 564.8,659.5 581.3,636.8" fill="#D5E0EC" fill-opacity="1.00" stroke="#33302C" stroke-width="0.90"/>
<polygon data-code="L1-09" points="581.3,636.8 564.8,659.5 576.8,668.2 593.3,645.5" fill="#D5E0EC" fill-opacity="1.00" stroke="#33302C" stroke-width="0.90"/>
<polygon data-code="L1-10" points="539.4,641.0 516.1,673.0 533.8,727.4 576.8,668.2" fill="#F0D9A6" fill-opacity="1.00" stroke="#33302C" stroke-width="0.90"/>
<polygon data-code="L1-11" points="696.2,526.2 640.8,602.5 678.2,629.7 753.4,526.2" fill="#E3E1DC" fill-opacity="1.00" stroke="#33302C" stroke-width="0.90"/>
<polygon data-code="L1-12" points="640.8,602.5 594.3,666.6 631.7,693.8 678.2,629.7" fill="#E3E1DC" fill-opacity="1.00" stroke="#33302C" stroke-width="0.90"/>
<polygon data-code="L1-13" points="594.3,666.6 538.8,742.9 556.5,797.2 631.7,693.8" fill="#E3E1DC" fill-opacity="1.00" stroke="#33302C" stroke-width="0.90"/>
<polygon data-code="L1-14" points="769.7,526.2 561.5,812.7 579.2,867.1 826.8,526.2" fill="#DCE7CF" fill-opacity="1.00" stroke="#33302C" stroke-width="0.90"/>
<polygon data-code="L1-15" points="843.1,526.2 713.7,704.4 751.1,731.6 900.2,526.2" fill="#E3E1DC" fill-opacity="1.00" stroke="#33302C" stroke-width="0.90"/>
<polygon data-code="L1-16" points="713.7,704.4 584.2,882.6 601.9,936.9 751.1,731.6" fill="#D9DDE1" fill-opacity="1.00" stroke="#33302C" stroke-width="0.90"/>
<polygon data-code="L1-17" points="477.8,608.3 387.3,578.9 341.1,612.5 495.4,662.6" fill="#DCE7CF" fill-opacity="1.00" stroke="#33302C" stroke-width="0.90"/>
<polygon data-code="L1-18" points="500.5,678.1 327.9,622.1 281.7,655.6 518.1,732.5" fill="#E9D8BC" fill-opacity="1.00" stroke="#33302C" stroke-width="0.90"/>
<polygon data-code="L1-19" points="523.2,748.0 268.5,665.2 222.3,698.8 540.8,802.3" fill="#E9D8BC" fill-opacity="1.00" stroke="#33302C" stroke-width="0.90"/>
<polygon data-code="L1-20" points="545.8,817.8 209.1,708.4 162.8,742.0 563.5,872.2" fill="#F0D9A6" fill-opacity="1.00" stroke="#33302C" stroke-width="0.90"/>
<polygon data-code="L1-21" points="568.5,887.7 149.6,751.6 103.4,785.2 586.2,942.0" fill="#E3E1DC" fill-opacity="1.00" stroke="#33302C" stroke-width="0.90"/>
<polygon data-code="L1-22" points="377.6,565.6 377.6,470.4 331.4,436.9 331.4,599.1" fill="#CFE8E4" fill-opacity="1.00" stroke="#33302C" stroke-width="0.90"/>
<polygon data-code="L1-23" points="318.2,608.7 318.2,427.3 272.0,393.7 272.0,642.3" fill="#CFE8E4" fill-opacity="1.00" stroke="#33302C" stroke-width="0.90"/>
<polygon data-code="L1-24" points="258.8,651.9 258.8,384.1 212.6,350.5 212.6,685.5" fill="#CFE8E4" fill-opacity="1.00" stroke="#33302C" stroke-width="0.90"/>
<polygon data-code="L1-25" points="199.4,695.1 199.4,340.9 153.2,307.4 153.2,728.6" fill="#CFE8E4" fill-opacity="1.00" stroke="#33302C" stroke-width="0.90"/>
<polygon data-code="L1-26" points="140.0,738.2 140.0,297.8 93.7,264.2 93.7,771.8" fill="#CFE8E4" fill-opacity="1.00" stroke="#33302C" stroke-width="0.90"/>
<polygon data-code="L1-27" points="387.3,457.1 477.8,427.7 495.4,373.4 341.1,423.5" fill="#DCE7CF" fill-opacity="1.00" stroke="#33302C" stroke-width="0.90"/>
<polygon data-code="L1-28" points="327.9,413.9 500.5,357.9 518.1,303.5 281.7,380.4" fill="#DCE7CF" fill-opacity="1.00" stroke="#33302C" stroke-width="0.90"/>
<polygon data-code="L1-29" points="268.5,370.8 523.2,288.0 540.8,233.7 222.3,337.2" fill="#DCE7CF" fill-opacity="1.00" stroke="#33302C" stroke-width="0.90"/>
<polygon data-code="L1-30" points="209.1,327.6 545.8,218.2 563.5,163.8 162.8,294.0" fill="#DCE7CF" fill-opacity="1.00" stroke="#33302C" stroke-width="0.90"/>
<polygon data-code="L1-31" points="149.6,284.4 568.5,148.3 586.2,94.0 103.4,250.8" fill="#E8DDD3" fill-opacity="1.00" stroke="#33302C" stroke-width="0.90"/>
<polygon data-code="L1-32" points="493.5,432.8 549.4,509.8 606.5,509.7 511.1,378.5" fill="#E3D9EE" fill-opacity="1.00" stroke="#33302C" stroke-width="0.90"/>
<polygon data-code="L1-33" points="516.1,363.0 533.0,386.2 570.4,359.0 533.8,308.6" fill="#E3D9EE" fill-opacity="1.00" stroke="#33302C" stroke-width="0.90"/>
<polygon data-code="L1-34" points="533.0,386.2 569.5,436.4 606.9,409.2 570.4,359.0" fill="#E3D9EE" fill-opacity="1.00" stroke="#33302C" stroke-width="0.90"/>
<polygon data-code="L1-35" points="569.5,436.4 605.9,486.5 643.3,459.4 606.9,409.2" fill="#E3D9EE" fill-opacity="1.00" stroke="#33302C" stroke-width="0.90"/>
<polygon data-code="L1-36" points="605.9,486.5 622.8,509.7 679.9,509.7 643.3,459.4" fill="#E3D9EE" fill-opacity="1.00" stroke="#33302C" stroke-width="0.90"/>
<polygon data-code="L1-37" points="538.8,293.1 568.3,333.6 605.7,306.5 556.5,238.8" fill="#E3D9EE" fill-opacity="1.00" stroke="#33302C" stroke-width="0.90"/>
<polygon data-code="L1-38" points="568.3,333.6 617.5,401.4 654.9,374.3 605.7,306.5" fill="#E3D9EE" fill-opacity="1.00" stroke="#33302C" stroke-width="0.90"/>
<polygon data-code="L1-39" points="617.5,401.4 666.8,469.2 704.2,442.1 654.9,374.3" fill="#E3D9EE" fill-opacity="1.00" stroke="#33302C" stroke-width="0.90"/>
<polygon data-code="L1-40" points="666.8,469.2 696.2,509.7 753.4,509.7 704.2,442.1" fill="#E3D9EE" fill-opacity="1.00" stroke="#33302C" stroke-width="0.90"/>
<polygon data-code="L1-41" points="561.5,223.3 665.6,366.5 703.0,339.3 579.2,168.9" fill="#E3D9EE" fill-opacity="1.00" stroke="#33302C" stroke-width="0.90"/>
<polygon data-code="L1-42" points="665.6,366.5 769.7,509.7 826.8,509.7 703.0,339.3" fill="#E3D9EE" fill-opacity="1.00" stroke="#33302C" stroke-width="0.90"/>
<polygon data-code="L1-43" points="584.2,153.4 843.1,509.7 900.2,509.7 601.9,99.1" fill="#E3E1DC" fill-opacity="1.00" stroke="#33302C" stroke-width="0.90"/>
<polygon data-code="L1-04" points="536.9,543.4 505.9,586.1 543.3,613.2 574.3,570.5" fill="none" fill-opacity="1.00" stroke="#2A6E8E" stroke-width="1.40" stroke-dasharray="5 3"/>
<polygon data-code="L1-AT" points="487.5,424.6 555.4,518.0 487.5,611.4 377.6,575.8 377.6,460.2" fill="#FBF6EA" fill-opacity="1.00" stroke="#1C2124" stroke-width="1.80"/>
<line x1="470.4" y1="508.3" x2="521.4" y2="471.3" stroke="#8A9395" stroke-width="2.7"/>
<line x1="470.4" y1="527.7" x2="521.4" y2="564.7" stroke="#8A9395" stroke-width="2.7"/>
<line x1="452.0" y1="533.7" x2="432.5" y2="593.6" stroke="#8A9395" stroke-width="2.7"/>
<line x1="440.6" y1="518.0" x2="377.6" y2="518.0" stroke="#8A9395" stroke-width="2.7"/>
<line x1="452.0" y1="502.3" x2="432.5" y2="442.4" stroke="#8A9395" stroke-width="2.7"/>
<circle cx="457.1" cy="518.0" r="16.5" fill="#DFE6F3" stroke="#3B5FB0" stroke-width="1.4"/>
<text x="457.1" y="518.0" font-size="10.0" font-weight="700" fill="#3B5FB0" text-anchor="middle" dominant-baseline="middle">PC</text>
<text x="457.1" y="567.5" font-size="10.5" font-weight="700" fill="#5E6A70" text-anchor="middle" dominant-baseline="middle">L1-AT</text>
<polygon points="563.3,109.0 597.9,97.8 609.1,132.3 574.6,143.5" fill="#5E6A70" fill-opacity="1.00" stroke="#1C2124" stroke-width="1.00"/>
<text x="586.2" y="120.7" font-size="8.5" font-weight="700" fill="#FFFFFF" text-anchor="middle" dominant-baseline="middle">CC1</text>
<polygon points="856.7,536.1 856.7,499.9 893.0,499.9 893.0,536.1" fill="#5E6A70" fill-opacity="1.00" stroke="#1C2124" stroke-width="1.00"/>
<text x="874.9" y="518.0" font-size="8.5" font-weight="700" fill="#FFFFFF" text-anchor="middle" dominant-baseline="middle">CC2</text>
<polygon points="597.9,938.2 563.3,927.0 574.6,892.5 609.1,903.7" fill="#5E6A70" fill-opacity="1.00" stroke="#1C2124" stroke-width="1.00"/>
<text x="586.2" y="915.3" font-size="8.5" font-weight="700" fill="#FFFFFF" text-anchor="middle" dominant-baseline="middle">CC3</text>
<polygon points="144.4,759.6 123.1,788.9 93.7,767.6 115.1,738.2" fill="#5E6A70" fill-opacity="1.00" stroke="#1C2124" stroke-width="1.00"/>
<text x="119.1" y="763.6" font-size="8.5" font-weight="700" fill="#FFFFFF" text-anchor="middle" dominant-baseline="middle">CC4</text>
<polygon points="123.1,247.1 144.4,276.4 115.1,297.8 93.7,268.4" fill="#5E6A70" fill-opacity="1.00" stroke="#1C2124" stroke-width="1.00"/>
<text x="119.1" y="272.4" font-size="8.5" font-weight="700" fill="#FFFFFF" text-anchor="middle" dominant-baseline="middle">CC5</text>
<text x="566.8" y="541.6" font-size="11.0" font-weight="700" fill="#1C2124" text-anchor="middle" dominant-baseline="middle" transform="rotate(-54.0 566.8 541.6)">L1-01</text>
<text x="540.1" y="578.3" font-size="8.1" font-weight="700" fill="#1C2124" text-anchor="middle" dominant-baseline="middle" transform="rotate(-54.0 540.1 578.3)">L1-02</text>
<text x="545.3" y="582.1" font-size="6.8" font-weight="400" fill="#3A4246" text-anchor="middle" dominant-baseline="middle" transform="rotate(-54.0 545.3 582.1)">Family room</text>
<text x="513.4" y="615.0" font-size="11.0" font-weight="700" fill="#1C2124" text-anchor="middle" dominant-baseline="middle" transform="rotate(-54.0 513.4 615.0)">L1-03</text>
<text x="634.8" y="549.0" font-size="11.0" font-weight="700" fill="#1C2124" text-anchor="middle" dominant-baseline="middle" transform="rotate(-54.0 634.8 549.0)">L1-05</text>
<text x="610.0" y="583.2" font-size="8.1" font-weight="700" fill="#1C2124" text-anchor="middle" dominant-baseline="middle" transform="rotate(-54.0 610.0 583.2)">L1-06</text>
<text x="615.2" y="587.0" font-size="6.8" font-weight="400" fill="#3A4246" text-anchor="middle" dominant-baseline="middle" transform="rotate(-54.0 615.2 587.0)">Bath</text>
<text x="588.2" y="613.2" font-size="11.0" font-weight="700" fill="#1C2124" text-anchor="middle" dominant-baseline="middle" transform="rotate(-54.0 588.2 613.2)">L1-07</text>
<text x="560.4" y="638.9" font-size="9.0" font-weight="700" fill="#1C2124" text-anchor="middle" dominant-baseline="middle" transform="rotate(-54.0 560.4 638.9)">L1-08</text>
<text x="579.1" y="652.5" font-size="9.0" font-weight="700" fill="#1C2124" text-anchor="middle" dominant-baseline="middle" transform="rotate(-54.0 579.1 652.5)">L1-09</text>
<text x="541.5" y="677.4" font-size="11.0" font-weight="700" fill="#1C2124" text-anchor="middle" dominant-baseline="middle" transform="rotate(-54.0 541.5 677.4)">L1-10</text>
<text x="548.9" y="682.8" font-size="9.2" font-weight="400" fill="#3A4246" text-anchor="middle" dominant-baseline="middle" transform="rotate(-54.0 548.9 682.8)">Kitchen</text>
<text x="692.2" y="571.2" font-size="9.5" font-weight="700" fill="#1C2124" text-anchor="middle" dominant-baseline="middle" transform="rotate(-54.0 692.2 571.2)">L1-11</text>
<text x="698.4" y="575.7" font-size="7.9" font-weight="400" fill="#3A4246" text-anchor="middle" dominant-baseline="middle" transform="rotate(-54.0 698.4 575.7)">Pantry and cold store</text>
<text x="636.2" y="648.2" font-size="11.0" font-weight="700" fill="#1C2124" text-anchor="middle" dominant-baseline="middle" transform="rotate(-54.0 636.2 648.2)">L1-12</text>
<text x="643.6" y="653.5" font-size="9.2" font-weight="400" fill="#3A4246" text-anchor="middle" dominant-baseline="middle" transform="rotate(-54.0 643.6 653.5)">Robot bay</text>
<text x="580.3" y="725.1" font-size="11.0" font-weight="700" fill="#1C2124" text-anchor="middle" dominant-baseline="middle" transform="rotate(-54.0 580.3 725.1)">L1-13</text>
<text x="587.7" y="730.5" font-size="9.2" font-weight="400" fill="#3A4246" text-anchor="middle" dominant-baseline="middle" transform="rotate(-54.0 587.7 730.5)">Household stores</text>
<text x="684.3" y="683.1" font-size="11.0" font-weight="700" fill="#1C2124" text-anchor="middle" dominant-baseline="middle" transform="rotate(-54.0 684.3 683.1)">L1-14</text>
<text x="691.7" y="688.4" font-size="9.2" font-weight="400" fill="#3A4246" text-anchor="middle" dominant-baseline="middle" transform="rotate(-54.0 691.7 688.4)">Memory rooms</text>
<text x="802.0" y="622.1" font-size="11.0" font-weight="700" fill="#1C2124" text-anchor="middle" dominant-baseline="middle" transform="rotate(-54.0 802.0 622.1)">L1-15</text>
<text x="809.4" y="627.5" font-size="9.2" font-weight="400" fill="#3A4246" text-anchor="middle" dominant-baseline="middle" transform="rotate(-54.0 809.4 627.5)">Wardrobe and stores</text>
<text x="662.7" y="813.9" font-size="11.0" font-weight="700" fill="#1C2124" text-anchor="middle" dominant-baseline="middle" transform="rotate(-54.0 662.7 813.9)">L1-16</text>
<text x="670.1" y="819.2" font-size="9.2" font-weight="400" fill="#3A4246" text-anchor="middle" dominant-baseline="middle" transform="rotate(-54.0 670.1 819.2)">Residence plant room</text>
<text x="425.4" y="615.6" font-size="11.0" font-weight="700" fill="#1C2124" text-anchor="middle" dominant-baseline="middle" transform="rotate(18.0 425.4 615.6)">L1-17</text>
<text x="422.6" y="624.2" font-size="9.2" font-weight="400" fill="#3A4246" text-anchor="middle" dominant-baseline="middle" transform="rotate(18.0 422.6 624.2)">Cinema</text>
<text x="407.0" y="672.1" font-size="11.0" font-weight="700" fill="#1C2124" text-anchor="middle" dominant-baseline="middle" transform="rotate(18.0 407.0 672.1)">L1-18</text>
<text x="404.2" y="680.7" font-size="9.2" font-weight="400" fill="#3A4246" text-anchor="middle" dominant-baseline="middle" transform="rotate(18.0 404.2 680.7)">Games room</text>
<text x="388.7" y="728.6" font-size="11.0" font-weight="700" fill="#1C2124" text-anchor="middle" dominant-baseline="middle" transform="rotate(18.0 388.7 728.6)">L1-19</text>
<text x="385.9" y="737.2" font-size="9.2" font-weight="400" fill="#3A4246" text-anchor="middle" dominant-baseline="middle" transform="rotate(18.0 385.9 737.2)">Ballroom</text>
<text x="370.3" y="785.1" font-size="11.0" font-weight="700" fill="#1C2124" text-anchor="middle" dominant-baseline="middle" transform="rotate(18.0 370.3 785.1)">L1-20</text>
<text x="367.5" y="793.8" font-size="9.2" font-weight="400" fill="#3A4246" text-anchor="middle" dominant-baseline="middle" transform="rotate(18.0 367.5 793.8)">Wine cellar</text>
<text x="352.0" y="841.6" font-size="11.0" font-weight="700" fill="#1C2124" text-anchor="middle" dominant-baseline="middle" transform="rotate(18.0 352.0 841.6)">L1-21</text>
<text x="349.1" y="850.3" font-size="9.2" font-weight="400" fill="#3A4246" text-anchor="middle" dominant-baseline="middle" transform="rotate(18.0 349.1 850.3)">Club stores</text>
<text x="354.5" y="518.0" font-size="11.0" font-weight="700" fill="#1C2124" text-anchor="middle" dominant-baseline="middle" transform="rotate(90.0 354.5 518.0)">L1-22</text>
<text x="345.4" y="518.0" font-size="9.2" font-weight="400" fill="#3A4246" text-anchor="middle" dominant-baseline="middle" transform="rotate(90.0 345.4 518.0)">Thermal baths</text>
<text x="295.1" y="518.0" font-size="11.0" font-weight="700" fill="#1C2124" text-anchor="middle" dominant-baseline="middle" transform="rotate(90.0 295.1 518.0)">L1-23</text>
<text x="286.0" y="518.0" font-size="9.2" font-weight="400" fill="#3A4246" text-anchor="middle" dominant-baseline="middle" transform="rotate(90.0 286.0 518.0)">Lap pool, 50 m</text>
<text x="235.7" y="518.0" font-size="11.0" font-weight="700" fill="#1C2124" text-anchor="middle" dominant-baseline="middle" transform="rotate(90.0 235.7 518.0)">L1-24</text>
<text x="226.6" y="518.0" font-size="9.2" font-weight="400" fill="#3A4246" text-anchor="middle" dominant-baseline="middle" transform="rotate(90.0 226.6 518.0)">Sports hall</text>
<text x="176.3" y="518.0" font-size="11.0" font-weight="700" fill="#1C2124" text-anchor="middle" dominant-baseline="middle" transform="rotate(90.0 176.3 518.0)">L1-25</text>
<text x="167.2" y="518.0" font-size="9.2" font-weight="400" fill="#3A4246" text-anchor="middle" dominant-baseline="middle" transform="rotate(90.0 167.2 518.0)">Sauna and steam</text>
<text x="116.8" y="518.0" font-size="11.0" font-weight="700" fill="#1C2124" text-anchor="middle" dominant-baseline="middle" transform="rotate(90.0 116.8 518.0)">L1-26</text>
<text x="107.7" y="518.0" font-size="9.2" font-weight="400" fill="#3A4246" text-anchor="middle" dominant-baseline="middle" transform="rotate(90.0 107.7 518.0)">Treatment rooms</text>
<text x="425.4" y="420.4" font-size="11.0" font-weight="700" fill="#1C2124" text-anchor="middle" dominant-baseline="middle" transform="rotate(-18.0 425.4 420.4)">L1-27</text>
<text x="428.2" y="429.1" font-size="9.2" font-weight="400" fill="#3A4246" text-anchor="middle" dominant-baseline="middle" transform="rotate(-18.0 428.2 429.1)">Great library</text>
<text x="407.0" y="363.9" font-size="11.0" font-weight="700" fill="#1C2124" text-anchor="middle" dominant-baseline="middle" transform="rotate(-18.0 407.0 363.9)">L1-28</text>
<text x="409.8" y="372.6" font-size="9.2" font-weight="400" fill="#3A4246" text-anchor="middle" dominant-baseline="middle" transform="rotate(-18.0 409.8 372.6)">Archive of Earth</text>
<text x="388.7" y="307.4" font-size="11.0" font-weight="700" fill="#1C2124" text-anchor="middle" dominant-baseline="middle" transform="rotate(-18.0 388.7 307.4)">L1-29</text>
<text x="391.5" y="316.1" font-size="9.2" font-weight="400" fill="#3A4246" text-anchor="middle" dominant-baseline="middle" transform="rotate(-18.0 391.5 316.1)">Film and music archive</text>
<text x="370.3" y="250.9" font-size="11.0" font-weight="700" fill="#1C2124" text-anchor="middle" dominant-baseline="middle" transform="rotate(-18.0 370.3 250.9)">L1-30</text>
<text x="373.1" y="259.6" font-size="9.2" font-weight="400" fill="#3A4246" text-anchor="middle" dominant-baseline="middle" transform="rotate(-18.0 373.1 259.6)">Book stacks</text>
<text x="352.0" y="194.4" font-size="11.0" font-weight="700" fill="#1C2124" text-anchor="middle" dominant-baseline="middle" transform="rotate(-18.0 352.0 194.4)">L1-31</text>
<text x="354.8" y="203.1" font-size="9.2" font-weight="400" fill="#3A4246" text-anchor="middle" dominant-baseline="middle" transform="rotate(-18.0 354.8 203.1)">Conservation workshop</text>
<text x="540.1" y="457.7" font-size="11.0" font-weight="700" fill="#1C2124" text-anchor="middle" dominant-baseline="middle" transform="rotate(54.0 540.1 457.7)">L1-32</text>
<text x="532.7" y="463.0" font-size="9.2" font-weight="400" fill="#3A4246" text-anchor="middle" dominant-baseline="middle" transform="rotate(54.0 532.7 463.0)">Guest lounge</text>
<text x="538.3" y="354.2" font-size="11.0" font-weight="700" fill="#1C2124" text-anchor="middle" dominant-baseline="middle" transform="rotate(54.0 538.3 354.2)">L1-33</text>
<text x="569.9" y="397.7" font-size="8.1" font-weight="700" fill="#1C2124" text-anchor="middle" dominant-baseline="middle" transform="rotate(54.0 569.9 397.7)">L1-34</text>
<text x="564.7" y="401.5" font-size="6.8" font-weight="400" fill="#3A4246" text-anchor="middle" dominant-baseline="middle" transform="rotate(54.0 564.7 401.5)">Guest suite 2</text>
<text x="606.4" y="447.9" font-size="8.1" font-weight="700" fill="#1C2124" text-anchor="middle" dominant-baseline="middle" transform="rotate(54.0 606.4 447.9)">L1-35</text>
<text x="601.2" y="451.7" font-size="6.8" font-weight="400" fill="#3A4246" text-anchor="middle" dominant-baseline="middle" transform="rotate(54.0 601.2 451.7)">Guest suite 3</text>
<text x="638.0" y="491.4" font-size="11.0" font-weight="700" fill="#1C2124" text-anchor="middle" dominant-baseline="middle" transform="rotate(54.0 638.0 491.4)">L1-36</text>
<text x="567.3" y="293.0" font-size="9.5" font-weight="700" fill="#1C2124" text-anchor="middle" dominant-baseline="middle" transform="rotate(54.0 567.3 293.0)">L1-37</text>
<text x="561.1" y="297.5" font-size="7.9" font-weight="400" fill="#3A4246" text-anchor="middle" dominant-baseline="middle" transform="rotate(54.0 561.1 297.5)">Guest suite 5</text>
<text x="611.6" y="353.9" font-size="11.0" font-weight="700" fill="#1C2124" text-anchor="middle" dominant-baseline="middle" transform="rotate(54.0 611.6 353.9)">L1-38</text>
<text x="604.2" y="359.3" font-size="9.2" font-weight="400" fill="#3A4246" text-anchor="middle" dominant-baseline="middle" transform="rotate(54.0 604.2 359.3)">Guest suite 6</text>
<text x="660.9" y="421.8" font-size="11.0" font-weight="700" fill="#1C2124" text-anchor="middle" dominant-baseline="middle" transform="rotate(54.0 660.9 421.8)">L1-39</text>
<text x="653.5" y="427.1" font-size="9.2" font-weight="400" fill="#3A4246" text-anchor="middle" dominant-baseline="middle" transform="rotate(54.0 653.5 427.1)">Guest suite 7</text>
<text x="705.2" y="482.7" font-size="9.5" font-weight="700" fill="#1C2124" text-anchor="middle" dominant-baseline="middle" transform="rotate(54.0 705.2 482.7)">L1-40</text>
<text x="698.9" y="487.2" font-size="7.9" font-weight="400" fill="#3A4246" text-anchor="middle" dominant-baseline="middle" transform="rotate(54.0 698.9 487.2)">Guest suite 8</text>
<text x="627.3" y="274.5" font-size="11.0" font-weight="700" fill="#1C2124" text-anchor="middle" dominant-baseline="middle" transform="rotate(54.0 627.3 274.5)">L1-41</text>
<text x="620.0" y="279.9" font-size="9.2" font-weight="400" fill="#3A4246" text-anchor="middle" dominant-baseline="middle" transform="rotate(54.0 620.0 279.9)">Family apartment 1</text>
<text x="741.3" y="431.3" font-size="11.0" font-weight="700" fill="#1C2124" text-anchor="middle" dominant-baseline="middle" transform="rotate(54.0 741.3 431.3)">L1-42</text>
<text x="733.9" y="436.7" font-size="9.2" font-weight="400" fill="#3A4246" text-anchor="middle" dominant-baseline="middle" transform="rotate(54.0 733.9 436.7)">Family apartment 2</text>
<text x="732.4" y="318.0" font-size="11.0" font-weight="700" fill="#1C2124" text-anchor="middle" dominant-baseline="middle" transform="rotate(54.0 732.4 318.0)">L1-43</text>
<text x="725.0" y="323.4" font-size="9.2" font-weight="400" fill="#3A4246" text-anchor="middle" dominant-baseline="middle" transform="rotate(54.0 725.0 323.4)">Staff and robots</text>
<text x="527.3" y="569.0" font-size="8.6" font-weight="700" fill="#2A6E8E" text-anchor="middle" dominant-baseline="middle" transform="rotate(-54.0 527.3 569.0)">L1-04 upstairs</text>
<text x="769.8" y="745.2" font-size="14.0" font-weight="700" fill="#1C2124" text-anchor="middle" dominant-baseline="middle" transform="rotate(-54.0 769.8 745.2)">1 · Jim&#x27;s residence</text>
<text x="337.7" y="885.5" font-size="14.0" font-weight="700" fill="#1C2124" text-anchor="middle" dominant-baseline="middle" transform="rotate(18.0 337.7 885.5)">2 · The club</text>
<text x="70.6" y="518.0" font-size="14.0" font-weight="700" fill="#1C2124" text-anchor="middle" dominant-baseline="middle" transform="rotate(90.0 70.6 518.0)">3 · Baths and sport</text>
<text x="337.7" y="150.5" font-size="14.0" font-weight="700" fill="#1C2124" text-anchor="middle" dominant-baseline="middle" transform="rotate(342.0 337.7 150.5)">4 · Library and archive</text>
<text x="769.8" y="290.8" font-size="14.0" font-weight="700" fill="#1C2124" text-anchor="middle" dominant-baseline="middle" transform="rotate(54.0 769.8 290.8)">5 · Guests</text>
<text x="24.0" y="30.0" font-size="20.0" font-weight="700" fill="#1C2124" text-anchor="start" dominant-baseline="middle">L1 · Residence · floor -24 m</text>
<text x="24.0" y="52.0" font-size="11.5" font-weight="400" fill="#4E575B" text-anchor="start" dominant-baseline="middle">Floor plans Rev G · north up · codes on every room</text>
<polygon points="1160.0,31.0 1167.0,57.0 1160.0,44.0 1153.0,57.0" fill="#1C2124" fill-opacity="1.00" stroke="#1C2124" stroke-width="0.50"/>
<text x="1160.0" y="20.0" font-size="12.0" font-weight="700" fill="#1C2124" text-anchor="middle" dominant-baseline="middle">N</text>
<line x1="28.0" y1="966.0" x2="193.0" y2="966.0" stroke="#1C2124" stroke-width="2"/>
<line x1="28.0" y1="961.0" x2="28.0" y2="971.0" stroke="#1C2124" stroke-width="1.4"/>
<line x1="110.5" y1="961.0" x2="110.5" y2="971.0" stroke="#1C2124" stroke-width="1.4"/>
<line x1="193.0" y1="961.0" x2="193.0" y2="971.0" stroke="#1C2124" stroke-width="1.4"/>
<text x="28.0" y="981.0" font-size="10.0" font-weight="400" fill="#1C2124" text-anchor="middle" dominant-baseline="middle">0</text>
<text x="110.5" y="981.0" font-size="10.0" font-weight="400" fill="#1C2124" text-anchor="middle" dominant-baseline="middle">25</text>
<text x="193.0" y="981.0" font-size="10.0" font-weight="400" fill="#1C2124" text-anchor="middle" dominant-baseline="middle">50 m</text>
<text x="1000.0" y="120.0" font-size="12.0" font-weight="700" fill="#1C2124" text-anchor="start" dominant-baseline="middle">Key</text>
<rect x="1000.0" y="136.0" width="14" height="11" fill="#E9D8BC" stroke="#33302C" stroke-width="0.8"/>
<text x="1020.0" y="142.0" font-size="10.5" font-weight="400" fill="#1C2124" text-anchor="start" dominant-baseline="middle">Living</text>
<rect x="1000.0" y="154.0" width="14" height="11" fill="#D5E0EC" stroke="#33302C" stroke-width="0.8"/>
<text x="1020.0" y="160.0" font-size="10.5" font-weight="400" fill="#1C2124" text-anchor="start" dominant-baseline="middle">Sleeping</text>
<rect x="1000.0" y="172.0" width="14" height="11" fill="#F0D9A6" stroke="#33302C" stroke-width="0.8"/>
<text x="1020.0" y="178.0" font-size="10.5" font-weight="400" fill="#1C2124" text-anchor="start" dominant-baseline="middle">Dining and kitchens</text>
<rect x="1000.0" y="190.0" width="14" height="11" fill="#DCE7CF" stroke="#33302C" stroke-width="0.8"/>
<text x="1020.0" y="196.0" font-size="10.5" font-weight="400" fill="#1C2124" text-anchor="start" dominant-baseline="middle">Library, music, art</text>
<rect x="1000.0" y="208.0" width="14" height="11" fill="#CFE8E4" stroke="#33302C" stroke-width="0.8"/>
<text x="1020.0" y="214.0" font-size="10.5" font-weight="400" fill="#1C2124" text-anchor="start" dominant-baseline="middle">Baths and sport</text>
<rect x="1000.0" y="226.0" width="14" height="11" fill="#E3D9EE" stroke="#33302C" stroke-width="0.8"/>
<text x="1020.0" y="232.0" font-size="10.5" font-weight="400" fill="#1C2124" text-anchor="start" dominant-baseline="middle">Guests</text>
<rect x="1000.0" y="244.0" width="14" height="11" fill="#E8DDD3" stroke="#33302C" stroke-width="0.8"/>
<text x="1020.0" y="250.0" font-size="10.5" font-weight="400" fill="#1C2124" text-anchor="start" dominant-baseline="middle">Work and making</text>
<rect x="1000.0" y="262.0" width="14" height="11" fill="#E3E1DC" stroke="#33302C" stroke-width="0.8"/>
<text x="1020.0" y="268.0" font-size="10.5" font-weight="400" fill="#1C2124" text-anchor="start" dominant-baseline="middle">Stores and services</text>
<rect x="1000.0" y="280.0" width="14" height="11" fill="#C9E0B5" stroke="#33302C" stroke-width="0.8"/>
<text x="1020.0" y="286.0" font-size="10.5" font-weight="400" fill="#1C2124" text-anchor="start" dominant-baseline="middle">Gardens</text>
<rect x="1000.0" y="298.0" width="14" height="11" fill="#D9DDE1" stroke="#33302C" stroke-width="0.8"/>
<text x="1020.0" y="304.0" font-size="10.5" font-weight="400" fill="#1C2124" text-anchor="start" dominant-baseline="middle">Machines</text>
<text x="1000.0" y="336.0" font-size="10.0" font-weight="400" fill="#2A6E8E" text-anchor="start" dominant-baseline="middle">Dashed blue: on the upper storey</text>
<text x="1000.0" y="354.0" font-size="10.0" font-weight="400" fill="#4E575B" text-anchor="start" dominant-baseline="middle">PC portal column · CC corner core</text>
</svg>