<svg xmlns="http://www.w3.org/2000/svg" viewBox="0 0 640 510" width="640" height="510" font-family="Helvetica, Arial, sans-serif">
<title>T-12 · Robotics and Rover Hangar: plan</title>
<rect width="640" height="510" fill="#FAF8F3"/>
<text x="24.0" y="28.0" font-size="16.0" font-weight="700" fill="#24272A" text-anchor="start" dominant-baseline="middle">T-12 · Robotics and Rover Hangar: plan</text>
<text x="24.0" y="48.0" font-size="11.0" font-weight="400" fill="#4E575B" text-anchor="start" dominant-baseline="middle">The three rover bays open onto the test yard (right); the suit room beside them; the lab and the workshop on the garden side.</text>
<polygon points="92.0,112.0 534.0,112.0 534.0,398.0 92.0,398.0" fill="#F4EFE5" stroke="#2B2926" stroke-width="1.3"/>
<polygon points="352.0,112.0 534.0,112.0 534.0,207.3 352.0,207.3" fill="#D8DDE2" stroke="#2B2926" stroke-width="1.3"/>
<polyline points="534.0,119.8 534.0,199.5" fill="none" stroke="#A8432A" stroke-width="4.5" stroke-linecap="butt"/>
<polygon points="391.0,142.8 487.2,142.8 487.2,176.6 391.0,176.6" fill="#FFFFFF" stroke="#6B7177" stroke-width="0.8" stroke-dasharray="3 2"/>
<text x="439.1" y="159.7" font-size="8.5" font-weight="400" fill="#4E575B" text-anchor="middle" dominant-baseline="middle">rover</text>
<text x="511.9" y="159.7" font-size="9.0" font-weight="600" fill="#4E575B" text-anchor="middle" dominant-baseline="middle" transform="rotate(-90.0 511.9 159.7)">bay 1</text>
<polygon points="352.0,207.3 534.0,207.3 534.0,302.7 352.0,302.7" fill="#D8DDE2" stroke="#2B2926" stroke-width="1.3"/>
<polyline points="534.0,215.1 534.0,294.9" fill="none" stroke="#A8432A" stroke-width="4.5" stroke-linecap="butt"/>
<polygon points="391.0,238.1 487.2,238.1 487.2,271.9 391.0,271.9" fill="#FFFFFF" stroke="#6B7177" stroke-width="0.8" stroke-dasharray="3 2"/>
<text x="439.1" y="255.0" font-size="8.5" font-weight="400" fill="#4E575B" text-anchor="middle" dominant-baseline="middle">rover</text>
<text x="511.9" y="255.0" font-size="9.0" font-weight="600" fill="#4E575B" text-anchor="middle" dominant-baseline="middle" transform="rotate(-90.0 511.9 255.0)">bay 2</text>
<polygon points="352.0,302.7 534.0,302.7 534.0,398.0 352.0,398.0" fill="#D8DDE2" stroke="#2B2926" stroke-width="1.3"/>
<polyline points="534.0,310.5 534.0,390.2" fill="none" stroke="#A8432A" stroke-width="4.5" stroke-linecap="butt"/>
<polygon points="391.0,333.4 487.2,333.4 487.2,367.2 391.0,367.2" fill="#FFFFFF" stroke="#6B7177" stroke-width="0.8" stroke-dasharray="3 2"/>
<text x="439.1" y="350.3" font-size="8.5" font-weight="400" fill="#4E575B" text-anchor="middle" dominant-baseline="middle">rover</text>
<text x="511.9" y="350.3" font-size="9.0" font-weight="600" fill="#4E575B" text-anchor="middle" dominant-baseline="middle" transform="rotate(-90.0 511.9 350.3)">bay 3</text>
<text x="439.1" y="96.4" font-size="10.0" font-weight="700" fill="#24272A" text-anchor="middle" dominant-baseline="middle">T12-01 rover bays</text>
<polygon points="274.0,112.0 352.0,112.0 352.0,307.0 274.0,307.0" fill="#D8DDE2" stroke="#2B2926" stroke-width="1.3"/>
<text x="313.0" y="203.4" font-size="11.0" font-weight="700" fill="#24272A" text-anchor="middle" dominant-baseline="middle">T12-04</text>
<text x="313.0" y="216.3" font-size="9.0" font-weight="400" fill="#4E575B" text-anchor="middle" dominant-baseline="middle">Suit room</text>
<polygon points="274.0,307.0 352.0,307.0 352.0,398.0 274.0,398.0" fill="#DFDED9" stroke="#2B2926" stroke-width="1.3"/>
<text x="313.0" y="346.4" font-size="11.0" font-weight="700" fill="#24272A" text-anchor="middle" dominant-baseline="middle">T12-05</text>
<text x="313.0" y="359.3" font-size="9.0" font-weight="400" fill="#4E575B" text-anchor="middle" dominant-baseline="middle">Store</text>
<polygon points="92.0,112.0 248.0,112.0 248.0,281.0 92.0,281.0" fill="#D5E1E8" stroke="#2B2926" stroke-width="1.3"/>
<text x="170.0" y="190.4" font-size="11.0" font-weight="700" fill="#24272A" text-anchor="middle" dominant-baseline="middle">T12-02</text>
<text x="170.0" y="203.3" font-size="9.0" font-weight="400" fill="#4E575B" text-anchor="middle" dominant-baseline="middle">Robotics lab</text>
<polygon points="92.0,281.0 248.0,281.0 248.0,398.0 92.0,398.0" fill="#D8DDE2" stroke="#2B2926" stroke-width="1.3"/>
<text x="170.0" y="333.4" font-size="11.0" font-weight="700" fill="#24272A" text-anchor="middle" dominant-baseline="middle">T12-03</text>
<text x="170.0" y="346.3" font-size="9.0" font-weight="400" fill="#4E575B" text-anchor="middle" dominant-baseline="middle">Workshop</text>
<text x="261.0" y="229.0" font-size="8.5" font-weight="400" fill="#4E575B" text-anchor="middle" dominant-baseline="middle" transform="rotate(-90.0 261.0 229.0)">corridor</text>
<circle cx="347.5" cy="159.7" r="5.9" fill="#FFFFFF" stroke="#2B2926" stroke-width="0.9"/>
<circle cx="347.5" cy="255.0" r="5.9" fill="#FFFFFF" stroke="#2B2926" stroke-width="0.9"/>
<text x="339.0" y="158.8" font-size="8.0" font-weight="400" fill="#4E575B" text-anchor="middle" dominant-baseline="middle" transform="rotate(-90.0 339.0 158.8)">suitports</text>
<polyline points="352.0,265.4 352.0,281.0" fill="none" stroke="#FAF8F3" stroke-width="3.4" stroke-linecap="butt"/>
<polyline points="352.0,265.4 336.4,265.4" fill="none" stroke="#2B2926" stroke-width="0.9" stroke-linecap="butt"/>
<path d="M336.4,265.4 A15.6,15.6 0 0 0 352.0,281.0" fill="none" stroke="#2B2926" stroke-width="0.7"/>
<polyline points="250.6,398.0 271.4,398.0" fill="none" stroke="#FAF8F3" stroke-width="3.4" stroke-linecap="butt"/>
<polyline points="250.6,398.0 250.6,377.2" fill="none" stroke="#2B2926" stroke-width="0.9" stroke-linecap="butt"/>
<path d="M250.6,377.2 A20.8,20.8 0 0 1 271.4,398.0" fill="none" stroke="#2B2926" stroke-width="0.7"/>
<line x1="261.0" y1="460.4" x2="261.0" y2="407.9" stroke="#A8432A" stroke-width="1.8"/>
<polygon points="261.0,401.9 265.5,410.9 256.5,410.9" fill="#A8432A"/>
<text x="261.0" y="472.4" font-size="10.0" font-weight="700" fill="#A8432A" text-anchor="middle" dominant-baseline="middle">in from the greenhouse path</text>
<polyline points="248.0,196.5 248.0,209.5" fill="none" stroke="#FAF8F3" stroke-width="3.4" stroke-linecap="butt"/>
<polyline points="248.0,196.5 235.0,196.5" fill="none" stroke="#2B2926" stroke-width="0.9" stroke-linecap="butt"/>
<path d="M235.0,196.5 A13.0,13.0 0 0 0 248.0,209.5" fill="none" stroke="#2B2926" stroke-width="0.7"/>
<polyline points="248.0,333.0 248.0,346.0" fill="none" stroke="#FAF8F3" stroke-width="3.4" stroke-linecap="butt"/>
<polyline points="248.0,333.0 235.0,333.0" fill="none" stroke="#2B2926" stroke-width="0.9" stroke-linecap="butt"/>
<path d="M235.0,333.0 A13.0,13.0 0 0 0 248.0,346.0" fill="none" stroke="#2B2926" stroke-width="0.7"/>
<polyline points="274.0,229.0 274.0,242.0" fill="none" stroke="#FAF8F3" stroke-width="3.4" stroke-linecap="butt"/>
<polyline points="274.0,229.0 287.0,229.0" fill="none" stroke="#2B2926" stroke-width="0.9" stroke-linecap="butt"/>
<path d="M287.0,229.0 A13.0,13.0 0 0 1 274.0,242.0" fill="none" stroke="#2B2926" stroke-width="0.7"/>
<polyline points="274.0,346.0 274.0,359.0" fill="none" stroke="#FAF8F3" stroke-width="3.4" stroke-linecap="butt"/>
<polyline points="274.0,346.0 287.0,346.0" fill="none" stroke="#2B2926" stroke-width="0.9" stroke-linecap="butt"/>
<path d="M287.0,346.0 A13.0,13.0 0 0 1 274.0,359.0" fill="none" stroke="#2B2926" stroke-width="0.7"/>
<polyline points="92.0,125.0 92.0,268.0" fill="none" stroke="#3E86B8" stroke-width="3.0" stroke-linecap="butt"/>
<text x="549.6" y="255.0" font-size="10.0" font-weight="700" fill="#4E575B" text-anchor="start" dominant-baseline="middle">test yard T-13 →</text>
<line x1="24.0" y1="482.0" x2="154.0" y2="482.0" stroke="#24272A" stroke-width="2"/>
<line x1="24.0" y1="478.0" x2="24.0" y2="486.0" stroke="#24272A" stroke-width="1.5"/>
<text x="24.0" y="496.0" font-size="10.0" font-weight="400" fill="#24272A" text-anchor="middle" dominant-baseline="middle">0</text>
<line x1="89.0" y1="478.0" x2="89.0" y2="486.0" stroke="#24272A" stroke-width="1.5"/>
<text x="89.0" y="496.0" font-size="10.0" font-weight="400" fill="#24272A" text-anchor="middle" dominant-baseline="middle">5</text>
<line x1="154.0" y1="478.0" x2="154.0" y2="486.0" stroke="#24272A" stroke-width="1.5"/>
<text x="154.0" y="496.0" font-size="10.0" font-weight="400" fill="#24272A" text-anchor="middle" dominant-baseline="middle">10 m</text>
<line x1="400.0" y1="464.0" x2="400.0" y2="484.0" stroke="#4E575B" stroke-width="1.6"/><polygon points="400.0,492.0 395.0,482.0 405.0,482.0" fill="#4E575B"/>
<text x="409.0" y="478.0" font-size="10.0" font-weight="400" fill="#4E575B" text-anchor="start" dominant-baseline="middle">toward the palace and the start</text>
</svg>