<svg xmlns="http://www.w3.org/2000/svg" viewBox="0 0 1080 1000" width="1080" height="1000" font-family="Helvetica, Arial, sans-serif">
<title>T-06 · The Crescent, the Academy: floor plans</title>
<rect width="1080" height="1000" fill="#FAF8F3"/>
<text x="24.0" y="28.0" font-size="16.0" font-weight="700" fill="#24272A" text-anchor="start" dominant-baseline="middle">T-06 · The Crescent, the Academy: floor plans</text>
<text x="24.0" y="48.0" font-size="11.0" font-weight="400" fill="#4E575B" text-anchor="start" dominant-baseline="middle">The palace&#x27;s dome at the bottom, the garden at the top. Classrooms face the garden; the corridor runs along the dome side.</text>
<text x="24.0" y="78.0" font-size="13.0" font-weight="700" fill="#24272A" text-anchor="start" dominant-baseline="middle">Upper floor · level with the palace&#x27;s floor and the winter garden</text>
<polygon points="350.0,529.3 354.3,522.7 358.8,516.3 363.5,510.1 368.4,504.0 373.5,498.1 378.9,492.4 384.4,486.9 390.1,481.5 396.0,476.4 402.1,471.5 408.3,466.8 414.7,462.3 421.3,458.0 428.0,454.0 434.8,450.2 441.8,446.7 448.9,443.4 456.1,440.3 463.4,437.5 470.8,435.0 478.3,432.7 485.8,430.7 493.4,428.9 501.1,427.4 508.8,426.2 516.6,425.2 524.4,424.5 532.2,424.1 540.0,424.0 547.8,424.1 555.6,424.5 563.4,425.2 571.2,426.2 578.9,427.4 586.6,428.9 594.2,430.7 601.7,432.7 609.2,435.0 616.6,437.5 623.9,440.3 631.1,443.4 638.2,446.7 645.2,450.2 652.0,454.0 658.7,458.0 665.3,462.3 671.7,466.8 677.9,471.5 684.0,476.4 689.9,481.5 695.6,486.9 701.1,492.4 706.5,498.1 711.6,504.0 716.5,510.1 721.2,516.3 725.7,522.7 730.0,529.3 655.3,575.9 652.7,571.9 650.0,568.1 647.2,564.3 644.2,560.6 641.1,557.0 637.8,553.5 634.5,550.2 631.0,546.9 627.4,543.8 623.7,540.8 619.9,538.0 616.1,535.3 612.1,532.7 608.0,530.2 603.8,527.9 599.6,525.8 595.3,523.8 590.9,521.9 586.5,520.2 582.0,518.7 577.5,517.3 572.9,516.0 568.3,515.0 563.6,514.1 558.9,513.3 554.2,512.7 549.5,512.3 544.7,512.1 540.0,512.0 535.3,512.1 530.5,512.3 525.8,512.7 521.1,513.3 516.4,514.1 511.7,515.0 507.1,516.0 502.5,517.3 498.0,518.7 493.5,520.2 489.1,521.9 484.7,523.8 480.4,525.8 476.2,527.9 472.0,530.2 467.9,532.7 463.9,535.3 460.1,538.0 456.3,540.8 452.6,543.8 449.0,546.9 445.5,550.2 442.2,553.5 438.9,557.0 435.8,560.6 432.8,564.3 430.0,568.1 427.3,571.9 424.7,575.9" fill="#ECE9E2" stroke="#9C968C" stroke-width="1.0"/>
<polyline points="350.0,529.3 354.3,522.7 358.8,516.3 363.5,510.1 368.4,504.0 373.5,498.1 378.9,492.4 384.4,486.9 390.1,481.5 396.0,476.4 402.1,471.5 408.3,466.8 414.7,462.3 421.3,458.0 428.0,454.0 434.8,450.2 441.8,446.7 448.9,443.4 456.1,440.3 463.4,437.5 470.8,435.0 478.3,432.7 485.8,430.7 493.4,428.9 501.1,427.4 508.8,426.2 516.6,425.2 524.4,424.5 532.2,424.1 540.0,424.0 547.8,424.1 555.6,424.5 563.4,425.2 571.2,426.2 578.9,427.4 586.6,428.9 594.2,430.7 601.7,432.7 609.2,435.0 616.6,437.5 623.9,440.3 631.1,443.4 638.2,446.7 645.2,450.2 652.0,454.0 658.7,458.0 665.3,462.3 671.7,466.8 677.9,471.5 684.0,476.4 689.9,481.5 695.6,486.9 701.1,492.4 706.5,498.1 711.6,504.0 716.5,510.1 721.2,516.3 725.7,522.7 730.0,529.3" fill="none" stroke="#77706A" stroke-width="2.4" stroke-linecap="butt"/>
<text x="540.0" y="484.0" font-size="10.0" font-weight="400" fill="#4E575B" text-anchor="middle" dominant-baseline="middle">T-01 Math Palace (the dome)</text>
<polygon points="258.1,411.5 266.5,401.8 275.3,392.4 284.4,383.3 293.8,374.5 303.5,366.1 313.4,358.0 323.7,350.3 334.2,342.9 345.0,335.9 356.0,329.3 367.2,323.1 378.7,317.2 390.3,311.8 402.1,306.8 414.1,302.2 426.3,298.0 438.6,294.3 451.0,290.9 463.5,288.0 476.1,285.6 488.8,283.6 501.5,282.0 514.3,280.9 527.2,280.2 540.0,280.0 552.8,280.2 565.7,280.9 578.5,282.0 591.2,283.6 603.9,285.6 616.5,288.0 629.0,290.9 641.4,294.3 653.7,298.0 665.9,302.2 677.9,306.8 689.7,311.8 701.3,317.2 712.8,323.1 724.0,329.3 735.0,335.9 745.8,342.9 756.3,350.3 766.6,358.0 776.5,366.1 786.2,374.5 795.6,383.3 804.7,392.4 813.5,401.8 821.9,411.5 715.3,500.9 710.0,494.9 704.6,489.1 698.9,483.4 693.1,478.0 687.1,472.7 680.9,467.7 674.5,462.9 667.9,458.3 661.2,454.0 654.4,449.9 647.4,446.0 640.3,442.4 633.1,439.0 625.7,435.9 618.3,433.0 610.7,430.4 603.1,428.1 595.4,426.0 587.6,424.2 579.7,422.7 571.8,421.4 563.9,420.5 556.0,419.8 548.0,419.3 540.0,419.2 532.0,419.3 524.0,419.8 516.1,420.5 508.2,421.4 500.3,422.7 492.4,424.2 484.6,426.0 476.9,428.1 469.3,430.4 461.7,433.0 454.3,435.9 446.9,439.0 439.7,442.4 432.6,446.0 425.6,449.9 418.8,454.0 412.1,458.3 405.5,462.9 399.1,467.7 392.9,472.7 386.9,478.0 381.1,483.4 375.4,489.1 370.0,494.9 364.7,500.9" fill="#D3E6C3" stroke="#6F8F5A" stroke-width="0.9"/>
<polygon points="516.0,435.2 564.0,435.2 564.0,403.2 516.0,403.2" fill="#F4EFE5" stroke="#2B2926" stroke-width="1.3"/>
<text x="540.0" y="419.2" font-size="10.1" font-weight="700" fill="#24272A" text-anchor="middle" dominant-baseline="middle">T09-04</text>
<text x="340.0" y="364.0" font-size="10.5" font-weight="700" fill="#4E6E3A" text-anchor="middle" dominant-baseline="middle" transform="rotate(-35.0 340.0 364.0)">T09-01 winter garden</text>
<text x="740.0" y="364.0" font-size="10.5" font-weight="700" fill="#4E6E3A" text-anchor="middle" dominant-baseline="middle" transform="rotate(35.0 740.0 364.0)">T09-01 winter garden</text>
<text x="540.0" y="307.2" font-size="9.0" font-weight="400" fill="#4E6E3A" text-anchor="middle" dominant-baseline="middle">under a glass vault</text>
<line x1="540.0" y1="400.0" x2="540.0" y2="290.8" stroke="#A8432A" stroke-width="1.8"/>
<polygon points="540.0,284.8 544.5,293.8 535.5,293.8" fill="#A8432A"/>
<polygon points="479.6,155.7 496.8,153.9 514.0,152.7 531.3,152.1 548.7,152.1 566.0,152.7 583.2,153.9 600.4,155.7 584.8,282.7 572.1,281.4 559.3,280.5 546.4,280.1 533.6,280.1 520.7,280.5 507.9,281.4 495.2,282.7" fill="#F4EFE5" stroke="#2B2926" stroke-width="1.3"/>
<text x="540.0" y="264.8" font-size="10.1" font-weight="700" fill="#24272A" text-anchor="middle" dominant-baseline="middle">T06-01</text>
<polyline points="479.6,155.7 489.6,154.6 499.6,153.6 509.7,152.9 519.8,152.4 529.9,152.1 540.0,152.0 550.1,152.1 560.2,152.4 570.3,152.9 580.4,153.6 590.4,154.6 600.4,155.7" fill="none" stroke="#3E86B8" stroke-width="2.6" stroke-linecap="butt"/>
<polygon points="600.4,155.7 617.6,158.1 634.6,161.1 651.6,164.7 668.4,168.9 685.0,173.7 701.5,179.0 717.8,184.9 733.8,191.4 749.6,198.5 707.7,288.4 695.0,282.7 682.2,277.6 669.2,272.8 656.0,268.5 642.7,264.7 629.3,261.4 615.7,258.5 602.1,256.1 588.4,254.2" fill="#EBDFC6" stroke="#2B2926" stroke-width="1.3"/>
<text x="663.0" y="212.8" font-size="11.0" font-weight="700" fill="#24272A" text-anchor="middle" dominant-baseline="middle" transform="rotate(16.0 663.0 212.8)">T06-02</text>
<text x="663.0" y="225.7" font-size="9.0" font-weight="400" fill="#4E575B" text-anchor="middle" dominant-baseline="middle" transform="rotate(16.0 663.0 225.7)">Euclid</text>
<polyline points="595.4,255.1 603.3,256.3" fill="none" stroke="#FAF8F3" stroke-width="3.4" stroke-linecap="butt"/>
<polyline points="595.4,255.1 596.6,247.2" fill="none" stroke="#2B2926" stroke-width="0.9" stroke-linecap="butt"/>
<path d="M596.6,247.2 A8.0,8.0 0 0 1 603.3,256.3" fill="none" stroke="#2B2926" stroke-width="0.7"/>
<polyline points="600.4,155.7 613.3,157.4 626.1,159.5 638.9,162.0 651.6,164.7 664.2,167.8 676.7,171.2 689.2,175.0 701.5,179.0 713.7,183.4 725.8,188.1 737.8,193.1 749.6,198.5" fill="none" stroke="#3E86B8" stroke-width="2.6" stroke-linecap="butt"/>
<polygon points="749.6,198.5 765.2,206.1 780.5,214.2 795.5,222.8 810.1,232.0 824.5,241.7 838.5,251.9 852.1,262.5 865.4,273.7 878.3,285.2 810.6,357.8 800.3,348.5 789.7,339.6 778.8,331.1 767.6,323.0 756.1,315.2 744.4,307.9 732.4,301.0 720.1,294.4 707.7,288.4" fill="#EBDFC6" stroke="#2B2926" stroke-width="1.3"/>
<text x="789.6" y="271.9" font-size="11.0" font-weight="700" fill="#24272A" text-anchor="middle" dominant-baseline="middle" transform="rotate(34.0 789.6 271.9)">T06-03</text>
<text x="789.6" y="284.7" font-size="9.0" font-weight="400" fill="#4E575B" text-anchor="middle" dominant-baseline="middle" transform="rotate(34.0 789.6 284.7)">Hypatia</text>
<polyline points="714.1,291.4 721.2,295.0" fill="none" stroke="#FAF8F3" stroke-width="3.4" stroke-linecap="butt"/>
<polyline points="714.1,291.4 717.7,284.3" fill="none" stroke="#2B2926" stroke-width="0.9" stroke-linecap="butt"/>
<path d="M717.7,284.3 A8.0,8.0 0 0 1 721.2,295.0" fill="none" stroke="#2B2926" stroke-width="0.7"/>
<polyline points="749.6,198.5 761.3,204.1 772.9,210.1 784.2,216.3 795.5,222.8 806.5,229.7 817.4,236.8 828.0,244.2 838.5,251.9 848.8,259.8 858.8,268.0 868.7,276.5 878.3,285.2" fill="none" stroke="#3E86B8" stroke-width="2.6" stroke-linecap="butt"/>
<polygon points="878.3,285.2 892.3,298.8 905.7,312.9 918.6,327.5 930.9,342.6 852.7,403.7 842.9,391.6 832.6,379.9 821.8,368.6 810.6,357.8" fill="#E4E2DA" stroke="#2B2926" stroke-width="1.3"/>
<text x="869.1" y="340.4" font-size="11.0" font-weight="700" fill="#24272A" text-anchor="middle" dominant-baseline="middle" transform="rotate(47.5 869.1 340.4)">T06-04</text>
<text x="869.1" y="353.2" font-size="9.0" font-weight="400" fill="#4E575B" text-anchor="middle" dominant-baseline="middle" transform="rotate(47.5 869.1 353.2)">Teachers</text>
<polyline points="815.8,362.7 821.5,368.3" fill="none" stroke="#FAF8F3" stroke-width="3.4" stroke-linecap="butt"/>
<polyline points="815.8,362.7 821.4,357.0" fill="none" stroke="#2B2926" stroke-width="0.9" stroke-linecap="butt"/>
<path d="M821.4,357.0 A8.0,8.0 0 0 1 821.5,368.3" fill="none" stroke="#2B2926" stroke-width="0.7"/>
<polyline points="878.3,285.2 883.0,289.7 887.7,294.2 892.3,298.8 896.8,303.4 901.3,308.1 905.7,312.9 910.0,317.7 914.3,322.6 918.6,327.5 922.7,332.5 926.8,337.5 930.9,342.6" fill="none" stroke="#3E86B8" stroke-width="2.6" stroke-linecap="butt"/>
<polygon points="330.4,198.5 346.2,191.4 362.2,184.9 378.5,179.0 395.0,173.7 411.6,168.9 428.4,164.7 445.4,161.1 462.4,158.1 479.6,155.7 491.6,254.2 477.9,256.1 464.3,258.5 450.7,261.4 437.3,264.7 424.0,268.5 410.8,272.8 397.8,277.6 385.0,282.7 372.3,288.4" fill="#EBDFC6" stroke="#2B2926" stroke-width="1.3"/>
<text x="417.0" y="212.8" font-size="11.0" font-weight="700" fill="#24272A" text-anchor="middle" dominant-baseline="middle" transform="rotate(-16.0 417.0 212.8)">T06-05</text>
<text x="417.0" y="225.7" font-size="9.0" font-weight="400" fill="#4E575B" text-anchor="middle" dominant-baseline="middle" transform="rotate(-16.0 417.0 225.7)">Fibonacci</text>
<polyline points="476.7,256.3 484.6,255.1" fill="none" stroke="#FAF8F3" stroke-width="3.4" stroke-linecap="butt"/>
<polyline points="476.7,256.3 475.5,248.3" fill="none" stroke="#2B2926" stroke-width="0.9" stroke-linecap="butt"/>
<path d="M475.5,248.3 A8.0,8.0 0 0 1 484.6,255.1" fill="none" stroke="#2B2926" stroke-width="0.7"/>
<polyline points="330.4,198.5 342.2,193.1 354.2,188.1 366.3,183.4 378.5,179.0 390.8,175.0 403.3,171.2 415.8,167.8 428.4,164.7 441.1,162.0 453.9,159.5 466.7,157.4 479.6,155.7" fill="none" stroke="#3E86B8" stroke-width="2.6" stroke-linecap="butt"/>
<polygon points="201.7,285.2 214.6,273.7 227.9,262.5 241.5,251.9 255.5,241.7 269.9,232.0 284.5,222.8 299.5,214.2 314.8,206.1 330.4,198.5 372.3,288.4 359.9,294.4 347.6,301.0 335.6,307.9 323.9,315.2 312.4,323.0 301.2,331.1 290.3,339.6 279.7,348.5 269.4,357.8" fill="#EBDFC6" stroke="#2B2926" stroke-width="1.3"/>
<text x="290.4" y="271.9" font-size="11.0" font-weight="700" fill="#24272A" text-anchor="middle" dominant-baseline="middle" transform="rotate(-34.0 290.4 271.9)">T06-06</text>
<text x="290.4" y="284.7" font-size="9.0" font-weight="400" fill="#4E575B" text-anchor="middle" dominant-baseline="middle" transform="rotate(-34.0 290.4 284.7)">Noether</text>
<polyline points="358.8,295.0 365.9,291.4" fill="none" stroke="#FAF8F3" stroke-width="3.4" stroke-linecap="butt"/>
<polyline points="358.8,295.0 355.2,287.8" fill="none" stroke="#2B2926" stroke-width="0.9" stroke-linecap="butt"/>
<path d="M355.2,287.8 A8.0,8.0 0 0 1 365.9,291.4" fill="none" stroke="#2B2926" stroke-width="0.7"/>
<polyline points="201.7,285.2 211.3,276.5 221.2,268.0 231.2,259.8 241.5,251.9 252.0,244.2 262.6,236.8 273.5,229.7 284.5,222.8 295.8,216.3 307.1,210.1 318.7,204.1 330.4,198.5" fill="none" stroke="#3E86B8" stroke-width="2.6" stroke-linecap="butt"/>
<polygon points="149.1,342.6 161.4,327.5 174.3,312.9 187.7,298.8 201.7,285.2 269.4,357.8 258.2,368.6 247.4,379.9 237.1,391.6 227.3,403.7" fill="#DFDED9" stroke="#2B2926" stroke-width="1.3"/>
<text x="210.9" y="340.4" font-size="11.0" font-weight="700" fill="#24272A" text-anchor="middle" dominant-baseline="middle" transform="rotate(-47.5 210.9 340.4)">T06-07</text>
<text x="210.9" y="353.2" font-size="9.0" font-weight="400" fill="#4E575B" text-anchor="middle" dominant-baseline="middle" transform="rotate(-47.5 210.9 353.2)">WC</text>
<polyline points="258.5,368.3 264.2,362.7" fill="none" stroke="#FAF8F3" stroke-width="3.4" stroke-linecap="butt"/>
<polyline points="258.5,368.3 252.9,362.6" fill="none" stroke="#2B2926" stroke-width="0.9" stroke-linecap="butt"/>
<path d="M252.9,362.6 A8.0,8.0 0 0 1 264.2,362.7" fill="none" stroke="#2B2926" stroke-width="0.7"/>
<polygon points="257.0,369.9 267.0,360.0 277.3,350.6 288.0,341.5 299.0,332.8 310.3,324.4 321.9,316.5 333.8,309.0 345.9,301.9 358.2,295.3 370.8,289.1 383.6,283.3 396.6,278.0 409.8,273.2 423.1,268.8 436.6,264.9 450.2,261.5 463.9,258.6 477.7,256.1 491.6,254.2 495.2,282.7 482.3,284.6 469.5,286.8 456.7,289.5 444.1,292.7 431.6,296.3 419.2,300.4 407.0,304.9 395.0,309.8 383.1,315.1 371.4,320.9 360.0,327.0 348.7,333.6 337.7,340.6 327.0,347.9 316.5,355.6 306.3,363.7 296.4,372.2 286.8,380.9 277.5,390.1" fill="#F4EFE5" stroke="#2B2926" stroke-width="1.3"/>
<text x="370.9" y="305.0" font-size="8.3" font-weight="700" fill="#24272A" text-anchor="middle" dominant-baseline="middle" transform="rotate(-26.2 370.9 305.0)">T06-CU</text>
<polygon points="588.4,254.2 602.3,256.1 616.1,258.6 629.8,261.5 643.4,264.9 656.9,268.8 670.2,273.2 683.4,278.0 696.4,283.3 709.2,289.1 721.8,295.3 734.1,301.9 746.2,309.0 758.1,316.5 769.7,324.4 781.0,332.8 792.0,341.5 802.7,350.6 813.0,360.0 823.0,369.9 802.5,390.1 793.2,380.9 783.6,372.2 773.7,363.7 763.5,355.6 753.0,347.9 742.3,340.6 731.3,333.6 720.0,327.0 708.6,320.9 696.9,315.1 685.0,309.8 673.0,304.9 660.8,300.4 648.4,296.3 635.9,292.7 623.3,289.5 610.5,286.8 597.7,284.6 584.8,282.7" fill="#F4EFE5" stroke="#2B2926" stroke-width="1.3"/>
<text x="709.1" y="305.0" font-size="8.3" font-weight="700" fill="#24272A" text-anchor="middle" dominant-baseline="middle" transform="rotate(26.2 709.1 305.0)">T06-CU</text>
<polygon points="227.3,403.7 236.8,392.1 246.7,380.8 257.0,369.9 277.5,390.1 268.0,400.2 258.8,410.6 250.0,421.4" fill="#F4EFE5" stroke="#2B2926" stroke-width="1.3"/>
<text x="234.5" y="380.0" font-size="7.8" font-weight="700" fill="#24272A" text-anchor="middle" dominant-baseline="middle" transform="rotate(-48.8 234.5 380.0)">T06-16</text>
<polygon points="251.5,415.4 267.3,397.0 260.3,391.0 244.5,409.4" fill="#FFFFFF" stroke="#2B2926" stroke-width="1.0"/>
<polyline points="252.6,414.1 245.6,408.1" fill="none" stroke="#8A847C" stroke-width="0.6" stroke-linecap="butt"/>
<polyline points="253.7,412.8 246.8,406.8" fill="none" stroke="#8A847C" stroke-width="0.6" stroke-linecap="butt"/>
<polyline points="254.9,411.5 247.9,405.5" fill="none" stroke="#8A847C" stroke-width="0.6" stroke-linecap="butt"/>
<polyline points="256.0,410.1 249.0,404.1" fill="none" stroke="#8A847C" stroke-width="0.6" stroke-linecap="butt"/>
<polyline points="257.1,408.8 250.2,402.8" fill="none" stroke="#8A847C" stroke-width="0.6" stroke-linecap="butt"/>
<polyline points="258.3,407.5 251.3,401.5" fill="none" stroke="#8A847C" stroke-width="0.6" stroke-linecap="butt"/>
<polyline points="259.4,406.2 252.4,400.2" fill="none" stroke="#8A847C" stroke-width="0.6" stroke-linecap="butt"/>
<polyline points="260.5,404.9 253.6,398.9" fill="none" stroke="#8A847C" stroke-width="0.6" stroke-linecap="butt"/>
<polyline points="261.7,403.6 254.7,397.6" fill="none" stroke="#8A847C" stroke-width="0.6" stroke-linecap="butt"/>
<polyline points="262.8,402.3 255.8,396.3" fill="none" stroke="#8A847C" stroke-width="0.6" stroke-linecap="butt"/>
<polyline points="263.9,401.0 256.9,395.0" fill="none" stroke="#8A847C" stroke-width="0.6" stroke-linecap="butt"/>
<polyline points="265.0,399.7 258.1,393.7" fill="none" stroke="#8A847C" stroke-width="0.6" stroke-linecap="butt"/>
<polyline points="266.2,398.3 259.2,392.3" fill="none" stroke="#8A847C" stroke-width="0.6" stroke-linecap="butt"/>
<line x1="250.6" y1="409.4" x2="257.3" y2="401.6" stroke="#24272A" stroke-width="1.8"/>
<polygon points="261.2,397.1 258.7,406.8 251.9,400.9" fill="#24272A"/>
<text x="241.7" y="419.7" font-size="8.5" font-weight="600" fill="#24272A" text-anchor="middle" dominant-baseline="middle">down</text>
<polygon points="249.7,381.3 233.3,400.3 240.3,406.3 256.7,387.3" fill="#FFFFFF" stroke="#2B2926" stroke-width="1.0"/>
<polyline points="248.6,382.6 255.5,388.7" fill="none" stroke="#8A847C" stroke-width="0.6" stroke-linecap="butt"/>
<polyline points="247.4,384.0 254.4,390.0" fill="none" stroke="#8A847C" stroke-width="0.6" stroke-linecap="butt"/>
<polyline points="246.2,385.4 253.2,391.4" fill="none" stroke="#8A847C" stroke-width="0.6" stroke-linecap="butt"/>
<polyline points="245.0,386.7 252.0,392.7" fill="none" stroke="#8A847C" stroke-width="0.6" stroke-linecap="butt"/>
<polyline points="243.9,388.1 250.8,394.1" fill="none" stroke="#8A847C" stroke-width="0.6" stroke-linecap="butt"/>
<polyline points="242.7,389.5 249.7,395.5" fill="none" stroke="#8A847C" stroke-width="0.6" stroke-linecap="butt"/>
<polyline points="241.5,390.8 248.5,396.8" fill="none" stroke="#8A847C" stroke-width="0.6" stroke-linecap="butt"/>
<polyline points="240.3,392.2 247.3,398.2" fill="none" stroke="#8A847C" stroke-width="0.6" stroke-linecap="butt"/>
<polyline points="239.2,393.5 246.1,399.5" fill="none" stroke="#8A847C" stroke-width="0.6" stroke-linecap="butt"/>
<polyline points="238.0,394.9 245.0,400.9" fill="none" stroke="#8A847C" stroke-width="0.6" stroke-linecap="butt"/>
<polyline points="236.8,396.3 243.8,402.3" fill="none" stroke="#8A847C" stroke-width="0.6" stroke-linecap="butt"/>
<polyline points="235.7,397.6 242.6,403.6" fill="none" stroke="#8A847C" stroke-width="0.6" stroke-linecap="butt"/>
<polyline points="234.5,399.0 241.5,405.0" fill="none" stroke="#8A847C" stroke-width="0.6" stroke-linecap="butt"/>
<line x1="250.6" y1="387.3" x2="243.3" y2="395.8" stroke="#24272A" stroke-width="1.8"/>
<polygon points="239.4,400.3 241.9,390.6 248.7,396.4" fill="#24272A"/>
<text x="259.5" y="377.0" font-size="8.5" font-weight="600" fill="#24272A" text-anchor="middle" dominant-baseline="middle"></text>
<polygon points="823.0,369.9 833.3,380.8 843.2,392.1 852.7,403.7 830.0,421.4 821.2,410.6 812.0,400.2 802.5,390.1" fill="#F4EFE5" stroke="#2B2926" stroke-width="1.3"/>
<text x="845.5" y="380.0" font-size="7.8" font-weight="700" fill="#24272A" text-anchor="middle" dominant-baseline="middle" transform="rotate(48.8 845.5 380.0)">T06-17</text>
<polygon points="835.5,409.4 819.7,391.0 812.7,397.0 828.5,415.4" fill="#FFFFFF" stroke="#2B2926" stroke-width="1.0"/>
<polyline points="834.4,408.1 827.4,414.1" fill="none" stroke="#8A847C" stroke-width="0.6" stroke-linecap="butt"/>
<polyline points="833.2,406.8 826.3,412.8" fill="none" stroke="#8A847C" stroke-width="0.6" stroke-linecap="butt"/>
<polyline points="832.1,405.5 825.1,411.5" fill="none" stroke="#8A847C" stroke-width="0.6" stroke-linecap="butt"/>
<polyline points="831.0,404.1 824.0,410.1" fill="none" stroke="#8A847C" stroke-width="0.6" stroke-linecap="butt"/>
<polyline points="829.8,402.8 822.9,408.8" fill="none" stroke="#8A847C" stroke-width="0.6" stroke-linecap="butt"/>
<polyline points="828.7,401.5 821.7,407.5" fill="none" stroke="#8A847C" stroke-width="0.6" stroke-linecap="butt"/>
<polyline points="827.6,400.2 820.6,406.2" fill="none" stroke="#8A847C" stroke-width="0.6" stroke-linecap="butt"/>
<polyline points="826.4,398.9 819.5,404.9" fill="none" stroke="#8A847C" stroke-width="0.6" stroke-linecap="butt"/>
<polyline points="825.3,397.6 818.3,403.6" fill="none" stroke="#8A847C" stroke-width="0.6" stroke-linecap="butt"/>
<polyline points="824.2,396.3 817.2,402.3" fill="none" stroke="#8A847C" stroke-width="0.6" stroke-linecap="butt"/>
<polyline points="823.1,395.0 816.1,401.0" fill="none" stroke="#8A847C" stroke-width="0.6" stroke-linecap="butt"/>
<polyline points="821.9,393.7 815.0,399.7" fill="none" stroke="#8A847C" stroke-width="0.6" stroke-linecap="butt"/>
<polyline points="820.8,392.3 813.8,398.3" fill="none" stroke="#8A847C" stroke-width="0.6" stroke-linecap="butt"/>
<line x1="829.4" y1="409.4" x2="822.7" y2="401.6" stroke="#24272A" stroke-width="1.8"/>
<polygon points="818.8,397.1 828.1,400.9 821.3,406.8" fill="#24272A"/>
<text x="838.3" y="419.7" font-size="8.5" font-weight="600" fill="#24272A" text-anchor="middle" dominant-baseline="middle">down</text>
<polygon points="823.3,387.3 839.7,406.3 846.7,400.3 830.3,381.3" fill="#FFFFFF" stroke="#2B2926" stroke-width="1.0"/>
<polyline points="824.5,388.7 831.4,382.6" fill="none" stroke="#8A847C" stroke-width="0.6" stroke-linecap="butt"/>
<polyline points="825.6,390.0 832.6,384.0" fill="none" stroke="#8A847C" stroke-width="0.6" stroke-linecap="butt"/>
<polyline points="826.8,391.4 833.8,385.4" fill="none" stroke="#8A847C" stroke-width="0.6" stroke-linecap="butt"/>
<polyline points="828.0,392.7 835.0,386.7" fill="none" stroke="#8A847C" stroke-width="0.6" stroke-linecap="butt"/>
<polyline points="829.2,394.1 836.1,388.1" fill="none" stroke="#8A847C" stroke-width="0.6" stroke-linecap="butt"/>
<polyline points="830.3,395.5 837.3,389.5" fill="none" stroke="#8A847C" stroke-width="0.6" stroke-linecap="butt"/>
<polyline points="831.5,396.8 838.5,390.8" fill="none" stroke="#8A847C" stroke-width="0.6" stroke-linecap="butt"/>
<polyline points="832.7,398.2 839.7,392.2" fill="none" stroke="#8A847C" stroke-width="0.6" stroke-linecap="butt"/>
<polyline points="833.9,399.5 840.8,393.5" fill="none" stroke="#8A847C" stroke-width="0.6" stroke-linecap="butt"/>
<polyline points="835.0,400.9 842.0,394.9" fill="none" stroke="#8A847C" stroke-width="0.6" stroke-linecap="butt"/>
<polyline points="836.2,402.3 843.2,396.3" fill="none" stroke="#8A847C" stroke-width="0.6" stroke-linecap="butt"/>
<polyline points="837.4,403.6 844.3,397.6" fill="none" stroke="#8A847C" stroke-width="0.6" stroke-linecap="butt"/>
<polyline points="838.5,405.0 845.5,399.0" fill="none" stroke="#8A847C" stroke-width="0.6" stroke-linecap="butt"/>
<line x1="829.4" y1="387.3" x2="836.7" y2="395.8" stroke="#24272A" stroke-width="1.8"/>
<polygon points="840.6,400.3 831.3,396.4 838.1,390.6" fill="#24272A"/>
<text x="820.5" y="377.0" font-size="8.5" font-weight="600" fill="#24272A" text-anchor="middle" dominant-baseline="middle"></text>
<polygon points="577.2,247.9 579.3,214.4 555.4,212.9 553.2,246.4" fill="#FFFFFF" stroke="#2B2926" stroke-width="1.0"/>
<polyline points="577.3,245.9 553.4,244.3" fill="none" stroke="#8A847C" stroke-width="0.6" stroke-linecap="butt"/>
<polyline points="577.5,243.8 553.5,242.2" fill="none" stroke="#8A847C" stroke-width="0.6" stroke-linecap="butt"/>
<polyline points="577.6,241.7 553.6,240.2" fill="none" stroke="#8A847C" stroke-width="0.6" stroke-linecap="butt"/>
<polyline points="577.7,239.6 553.8,238.1" fill="none" stroke="#8A847C" stroke-width="0.6" stroke-linecap="butt"/>
<polyline points="577.9,237.5 553.9,236.0" fill="none" stroke="#8A847C" stroke-width="0.6" stroke-linecap="butt"/>
<polyline points="578.0,235.4 554.0,233.9" fill="none" stroke="#8A847C" stroke-width="0.6" stroke-linecap="butt"/>
<polyline points="578.1,233.3 554.2,231.8" fill="none" stroke="#8A847C" stroke-width="0.6" stroke-linecap="butt"/>
<polyline points="578.2,231.2 554.3,229.7" fill="none" stroke="#8A847C" stroke-width="0.6" stroke-linecap="butt"/>
<polyline points="578.4,229.1 554.4,227.6" fill="none" stroke="#8A847C" stroke-width="0.6" stroke-linecap="butt"/>
<polyline points="578.5,227.0 554.6,225.5" fill="none" stroke="#8A847C" stroke-width="0.6" stroke-linecap="butt"/>
<polyline points="578.6,224.9 554.7,223.4" fill="none" stroke="#8A847C" stroke-width="0.6" stroke-linecap="butt"/>
<polyline points="578.8,222.8 554.8,221.3" fill="none" stroke="#8A847C" stroke-width="0.6" stroke-linecap="butt"/>
<polyline points="578.9,220.7 555.0,219.2" fill="none" stroke="#8A847C" stroke-width="0.6" stroke-linecap="butt"/>
<polyline points="579.0,218.6 555.1,217.1" fill="none" stroke="#8A847C" stroke-width="0.6" stroke-linecap="butt"/>
<polyline points="579.2,216.5 555.2,215.0" fill="none" stroke="#8A847C" stroke-width="0.6" stroke-linecap="butt"/>
<line x1="565.5" y1="243.2" x2="566.7" y2="223.6" stroke="#24272A" stroke-width="1.8"/>
<polygon points="567.1,217.7 571.0,226.9 562.0,226.4" fill="#24272A"/>
<text x="564.6" y="256.8" font-size="8.5" font-weight="600" fill="#24272A" text-anchor="middle" dominant-baseline="middle">down</text>
<polygon points="555.6,201.9 568.0,202.5 580.5,203.4 579.4,214.6 567.3,213.7 555.2,213.1" fill="#FFFFFF" stroke="#2B2926" stroke-width="1.0"/>
<polygon points="580.0,203.2 582.1,169.7 558.2,168.2 556.1,201.7" fill="#FFFFFF" stroke="#2B2926" stroke-width="1.0"/>
<polyline points="580.1,201.1 556.2,199.6" fill="none" stroke="#8A847C" stroke-width="0.6" stroke-linecap="butt"/>
<polyline points="580.3,199.0 556.3,197.5" fill="none" stroke="#8A847C" stroke-width="0.6" stroke-linecap="butt"/>
<polyline points="580.4,196.9 556.4,195.4" fill="none" stroke="#8A847C" stroke-width="0.6" stroke-linecap="butt"/>
<polyline points="580.5,194.9 556.6,193.3" fill="none" stroke="#8A847C" stroke-width="0.6" stroke-linecap="butt"/>
<polyline points="580.7,192.8 556.7,191.2" fill="none" stroke="#8A847C" stroke-width="0.6" stroke-linecap="butt"/>
<polyline points="580.8,190.7 556.8,189.2" fill="none" stroke="#8A847C" stroke-width="0.6" stroke-linecap="butt"/>
<polyline points="580.9,188.6 557.0,187.1" fill="none" stroke="#8A847C" stroke-width="0.6" stroke-linecap="butt"/>
<polyline points="581.1,186.5 557.1,185.0" fill="none" stroke="#8A847C" stroke-width="0.6" stroke-linecap="butt"/>
<polyline points="581.2,184.4 557.2,182.9" fill="none" stroke="#8A847C" stroke-width="0.6" stroke-linecap="butt"/>
<polyline points="581.3,182.3 557.4,180.8" fill="none" stroke="#8A847C" stroke-width="0.6" stroke-linecap="butt"/>
<polyline points="581.5,180.2 557.5,178.7" fill="none" stroke="#8A847C" stroke-width="0.6" stroke-linecap="butt"/>
<polyline points="581.6,178.1 557.6,176.6" fill="none" stroke="#8A847C" stroke-width="0.6" stroke-linecap="butt"/>
<polyline points="581.7,176.0 557.8,174.5" fill="none" stroke="#8A847C" stroke-width="0.6" stroke-linecap="butt"/>
<polyline points="581.9,173.9 557.9,172.4" fill="none" stroke="#8A847C" stroke-width="0.6" stroke-linecap="butt"/>
<polyline points="582.0,171.8 558.0,170.3" fill="none" stroke="#8A847C" stroke-width="0.6" stroke-linecap="butt"/>
<line x1="568.3" y1="198.5" x2="569.5" y2="178.9" stroke="#24272A" stroke-width="1.8"/>
<polygon points="569.9,172.9 573.8,182.2 564.8,181.6" fill="#24272A"/>
<text x="567.4" y="212.1" font-size="8.5" font-weight="600" fill="#24272A" text-anchor="middle" dominant-baseline="middle"></text>
<polygon points="482.4,157.8 501.6,155.9 520.8,154.8 540.0,154.4 559.2,154.8 578.4,155.9 597.6,157.8 587.6,242.8 571.8,241.2 555.9,240.3 540.0,240.0 524.1,240.3 508.2,241.2 492.4,242.8" fill="none" stroke="#77706A" stroke-width="0.8" stroke-dasharray="4 3"/>
<polyline points="493.8,242.6 497.4,242.2 500.9,241.9 504.4,241.6 508.0,241.3 511.5,241.0 515.1,240.8 518.6,240.6 522.2,240.4 525.8,240.2 529.3,240.1 532.9,240.1 536.4,240.0 540.0,240.0 543.6,240.0 547.1,240.1 550.7,240.1 554.2,240.2 557.8,240.4 561.4,240.6 564.9,240.8 568.5,241.0 572.0,241.3 575.6,241.6 579.1,241.9 582.6,242.2 586.2,242.6" fill="none" stroke="#3E86B8" stroke-width="1.6" stroke-linecap="butt"/>
<text x="515.6" y="183.0" font-size="8.5" font-weight="400" fill="#4E575B" text-anchor="middle" dominant-baseline="middle" transform="rotate(-3.0 515.6 183.0)">open to below</text>
<polygon points="499.2,242.1 516.8,242.1 516.8,259.7 499.2,259.7" fill="#FFFFFF" stroke="#2B2926" stroke-width="1.0"/>
<polyline points="499.2,242.1 516.8,259.7" fill="none" stroke="#8A847C" stroke-width="0.6" stroke-linecap="butt"/>
<polyline points="516.8,242.1 499.2,259.7" fill="none" stroke="#8A847C" stroke-width="0.6" stroke-linecap="butt"/>
<text x="509.3" y="266.0" font-size="8.0" font-weight="600" fill="#24272A" text-anchor="middle" dominant-baseline="middle">lift</text>
<polyline points="250.0,421.4 258.1,411.5 266.5,401.8 275.3,392.4 284.4,383.3 293.8,374.5 303.5,366.1 313.4,358.0 323.7,350.3 334.2,342.9 345.0,335.9 356.0,329.3 367.2,323.1 378.7,317.2 390.3,311.8 402.1,306.8 414.1,302.2 426.3,298.0 438.6,294.3 451.0,290.9 463.5,288.0 476.1,285.6 488.8,283.6 501.5,282.0 514.3,280.9 527.2,280.2 540.0,280.0 552.8,280.2 565.7,280.9 578.5,282.0 591.2,283.6 603.9,285.6 616.5,288.0 629.0,290.9 641.4,294.3 653.7,298.0 665.9,302.2 677.9,306.8 689.7,311.8 701.3,317.2 712.8,323.1 724.0,329.3 735.0,335.9 745.8,342.9 756.3,350.3 766.6,358.0 776.5,366.1 786.2,374.5 795.6,383.3 804.7,392.4 813.5,401.8 821.9,411.5 830.0,421.4" fill="none" stroke="#3E86B8" stroke-width="2.2" stroke-linecap="butt"/>
<text x="613.9" y="300.6" font-size="9.0" font-weight="700" fill="#A8432A" text-anchor="middle" dominant-baseline="middle" transform="rotate(12.0 613.9 300.6)">doors in from the winter garden</text>
<text x="24.0" y="566.0" font-size="13.0" font-weight="700" fill="#24272A" text-anchor="start" dominant-baseline="middle">Lower floor · 5.6 m down, level with the garden gallery and the upper garden dome</text>
<polygon points="479.6,643.7 496.8,641.9 514.0,640.7 531.3,640.1 548.7,640.1 566.0,640.7 583.2,641.9 600.4,643.7 584.8,770.7 572.1,769.4 559.3,768.5 546.4,768.1 533.6,768.1 520.7,768.5 507.9,769.4 495.2,770.7" fill="#F4EFE5" stroke="#2B2926" stroke-width="1.3"/>
<text x="540.0" y="746.8" font-size="11.0" font-weight="700" fill="#24272A" text-anchor="middle" dominant-baseline="middle">T06-08</text>
<text x="540.0" y="759.6" font-size="9.0" font-weight="400" fill="#4E575B" text-anchor="middle" dominant-baseline="middle">Lower hall</text>
<polyline points="479.6,643.7 489.6,642.6 499.6,641.6 509.7,640.9 519.8,640.4 529.9,640.1 540.0,640.0 550.1,640.1 560.2,640.4 570.3,640.9 580.4,641.6 590.4,642.6 600.4,643.7" fill="none" stroke="#3E86B8" stroke-width="2.6" stroke-linecap="butt"/>
<polygon points="600.4,643.7 617.6,646.1 634.6,649.1 651.6,652.7 668.4,656.9 685.0,661.7 701.5,667.0 717.8,672.9 733.8,679.4 749.6,686.5 765.2,694.1 720.1,782.4 707.7,776.4 695.0,770.7 682.2,765.6 669.2,760.8 656.0,756.5 642.7,752.7 629.3,749.4 615.7,746.5 602.1,744.1 588.4,742.2" fill="#DDE7D0" stroke="#2B2926" stroke-width="1.3"/>
<text x="670.5" y="703.1" font-size="11.0" font-weight="700" fill="#24272A" text-anchor="middle" dominant-baseline="middle" transform="rotate(17.0 670.5 703.1)">T06-09</text>
<text x="670.5" y="715.9" font-size="9.0" font-weight="400" fill="#4E575B" text-anchor="middle" dominant-baseline="middle" transform="rotate(17.0 670.5 715.9)">Study hall</text>
<polyline points="595.4,743.1 603.3,744.3" fill="none" stroke="#FAF8F3" stroke-width="3.4" stroke-linecap="butt"/>
<polyline points="595.4,743.1 596.6,735.2" fill="none" stroke="#2B2926" stroke-width="0.9" stroke-linecap="butt"/>
<path d="M596.6,735.2 A8.0,8.0 0 0 1 603.3,744.3" fill="none" stroke="#2B2926" stroke-width="0.7"/>
<polyline points="600.4,643.7 614.7,645.7 629.0,648.0 643.1,650.8 657.2,654.0 671.2,657.7 685.0,661.7 698.8,666.1 712.4,670.9 725.8,676.1 739.1,681.7 752.2,687.7 765.2,694.1" fill="none" stroke="#3E86B8" stroke-width="2.6" stroke-linecap="butt"/>
<polyline points="680.4,660.3 689.6,663.1" fill="none" stroke="#FAF8F3" stroke-width="3.4" stroke-linecap="butt"/>
<polyline points="680.4,660.3 677.6,669.4" fill="none" stroke="#2B2926" stroke-width="0.9" stroke-linecap="butt"/>
<path d="M677.6,669.4 A9.6,9.6 0 0 0 689.6,663.1" fill="none" stroke="#2B2926" stroke-width="0.7"/>
<polygon points="765.2,694.1 780.5,702.2 795.5,710.8 810.1,720.0 824.5,729.7 838.5,739.9 852.1,750.5 865.4,761.7 800.3,836.5 789.7,827.6 778.8,819.1 767.6,811.0 756.1,803.2 744.4,795.9 732.4,789.0 720.1,782.4" fill="#EBDFC6" stroke="#2B2926" stroke-width="1.3"/>
<text x="789.6" y="759.9" font-size="11.0" font-weight="700" fill="#24272A" text-anchor="middle" dominant-baseline="middle" transform="rotate(34.0 789.6 759.9)">T06-10</text>
<text x="789.6" y="772.7" font-size="9.0" font-weight="400" fill="#4E575B" text-anchor="middle" dominant-baseline="middle" transform="rotate(34.0 789.6 772.7)">Gauss</text>
<polyline points="726.4,785.7 733.5,789.5" fill="none" stroke="#FAF8F3" stroke-width="3.4" stroke-linecap="butt"/>
<polyline points="726.4,785.7 730.3,778.7" fill="none" stroke="#2B2926" stroke-width="0.9" stroke-linecap="butt"/>
<path d="M730.3,778.7 A8.0,8.0 0 0 1 733.5,789.5" fill="none" stroke="#2B2926" stroke-width="0.7"/>
<polyline points="765.2,694.1 774.1,698.7 783.0,703.6 791.7,708.6 800.4,713.8 808.9,719.2 817.4,724.8 825.7,730.5 833.9,736.4 841.9,742.5 849.9,748.7 857.7,755.1 865.4,761.7" fill="none" stroke="#3E86B8" stroke-width="2.6" stroke-linecap="butt"/>
<polyline points="813.4,722.1 821.3,727.5" fill="none" stroke="#FAF8F3" stroke-width="3.4" stroke-linecap="butt"/>
<polyline points="813.4,722.1 808.0,730.1" fill="none" stroke="#2B2926" stroke-width="0.9" stroke-linecap="butt"/>
<path d="M808.0,730.1 A9.6,9.6 0 0 0 821.3,727.5" fill="none" stroke="#2B2926" stroke-width="0.7"/>
<polygon points="865.4,761.7 879.5,774.4 893.2,787.7 906.3,801.5 918.8,815.9 930.9,830.6 852.7,891.7 843.1,879.9 833.0,868.4 822.5,857.4 811.6,846.7 800.3,836.5" fill="#D5E1E8" stroke="#2B2926" stroke-width="1.3"/>
<text x="863.8" y="822.7" font-size="11.0" font-weight="700" fill="#24272A" text-anchor="middle" dominant-baseline="middle" transform="rotate(46.5 863.8 822.7)">T06-11</text>
<text x="863.8" y="835.5" font-size="9.0" font-weight="400" fill="#4E575B" text-anchor="middle" dominant-baseline="middle" transform="rotate(46.5 863.8 835.5)">Turing</text>
<polyline points="805.6,841.2 811.5,846.6" fill="none" stroke="#FAF8F3" stroke-width="3.4" stroke-linecap="butt"/>
<polyline points="805.6,841.2 811.1,835.3" fill="none" stroke="#2B2926" stroke-width="0.9" stroke-linecap="butt"/>
<path d="M811.1,835.3 A8.0,8.0 0 0 1 811.5,846.6" fill="none" stroke="#2B2926" stroke-width="0.7"/>
<polyline points="865.4,761.7 871.4,766.9 877.2,772.3 883.0,777.7 888.7,783.2 894.3,788.9 899.8,794.6 905.2,800.4 910.5,806.3 915.8,812.2 920.9,818.3 925.9,824.4 930.9,830.6" fill="none" stroke="#3E86B8" stroke-width="2.6" stroke-linecap="butt"/>
<polyline points="896.5,791.1 903.1,798.1" fill="none" stroke="#FAF8F3" stroke-width="3.4" stroke-linecap="butt"/>
<polyline points="896.5,791.1 889.5,797.7" fill="none" stroke="#2B2926" stroke-width="0.9" stroke-linecap="butt"/>
<path d="M889.5,797.7 A9.6,9.6 0 0 0 903.1,798.1" fill="none" stroke="#2B2926" stroke-width="0.7"/>
<polygon points="314.8,694.1 330.4,686.5 346.2,679.4 362.2,672.9 378.5,667.0 395.0,661.7 411.6,656.9 428.4,652.7 445.4,649.1 462.4,646.1 479.6,643.7 491.6,742.2 477.9,744.1 464.3,746.5 450.7,749.4 437.3,752.7 424.0,756.5 410.8,760.8 397.8,765.6 385.0,770.7 372.3,776.4 359.9,782.4" fill="#EBD7C9" stroke="#2B2926" stroke-width="1.3"/>
<text x="409.5" y="703.1" font-size="11.0" font-weight="700" fill="#24272A" text-anchor="middle" dominant-baseline="middle" transform="rotate(-17.0 409.5 703.1)">T06-12</text>
<text x="409.5" y="715.9" font-size="9.0" font-weight="400" fill="#4E575B" text-anchor="middle" dominant-baseline="middle" transform="rotate(-17.0 409.5 715.9)">Ramanujan</text>
<polyline points="476.7,744.3 484.6,743.1" fill="none" stroke="#FAF8F3" stroke-width="3.4" stroke-linecap="butt"/>
<polyline points="476.7,744.3 475.5,736.3" fill="none" stroke="#2B2926" stroke-width="0.9" stroke-linecap="butt"/>
<path d="M475.5,736.3 A8.0,8.0 0 0 1 484.6,743.1" fill="none" stroke="#2B2926" stroke-width="0.7"/>
<polyline points="314.8,694.1 327.8,687.7 340.9,681.7 354.2,676.1 367.6,670.9 381.2,666.1 395.0,661.7 408.8,657.7 422.8,654.0 436.9,650.8 451.0,648.0 465.3,645.7 479.6,643.7" fill="none" stroke="#3E86B8" stroke-width="2.6" stroke-linecap="butt"/>
<polyline points="390.4,663.1 399.6,660.3" fill="none" stroke="#FAF8F3" stroke-width="3.4" stroke-linecap="butt"/>
<polyline points="390.4,663.1 393.2,672.3" fill="none" stroke="#2B2926" stroke-width="0.9" stroke-linecap="butt"/>
<path d="M393.2,672.3 A9.6,9.6 0 0 0 399.6,660.3" fill="none" stroke="#2B2926" stroke-width="0.7"/>
<polygon points="214.6,761.7 227.9,750.5 241.5,739.9 255.5,729.7 269.9,720.0 284.5,710.8 299.5,702.2 314.8,694.1 359.9,782.4 347.6,789.0 335.6,795.9 323.9,803.2 312.4,811.0 301.2,819.1 290.3,827.6 279.7,836.5" fill="#EBD7C9" stroke="#2B2926" stroke-width="1.3"/>
<text x="290.4" y="765.9" font-size="10.1" font-weight="700" fill="#24272A" text-anchor="middle" dominant-baseline="middle" transform="rotate(-34.0 290.4 765.9)">T06-13</text>
<polyline points="346.5,789.5 353.6,785.7" fill="none" stroke="#FAF8F3" stroke-width="3.4" stroke-linecap="butt"/>
<polyline points="346.5,789.5 342.7,782.5" fill="none" stroke="#2B2926" stroke-width="0.9" stroke-linecap="butt"/>
<path d="M342.7,782.5 A8.0,8.0 0 0 1 353.6,785.7" fill="none" stroke="#2B2926" stroke-width="0.7"/>
<polyline points="214.6,761.7 222.3,755.1 230.1,748.7 238.1,742.5 246.1,736.4 254.3,730.5 262.6,724.8 271.1,719.2 279.6,713.8 288.3,708.6 297.0,703.6 305.9,698.7 314.8,694.1" fill="none" stroke="#3E86B8" stroke-width="2.6" stroke-linecap="butt"/>
<polyline points="258.7,727.5 266.6,722.1" fill="none" stroke="#FAF8F3" stroke-width="3.4" stroke-linecap="butt"/>
<polyline points="258.7,727.5 264.0,735.4" fill="none" stroke="#2B2926" stroke-width="0.9" stroke-linecap="butt"/>
<path d="M264.0,735.4 A9.6,9.6 0 0 0 266.6,722.1" fill="none" stroke="#2B2926" stroke-width="0.7"/>
<polygon points="149.1,830.6 161.2,815.9 173.7,801.5 186.8,787.7 200.5,774.4 214.6,761.7 279.7,836.5 268.4,846.7 257.5,857.4 247.0,868.4 236.9,879.9 227.3,891.7" fill="#DFDED9" stroke="#2B2926" stroke-width="1.3"/>
<text x="216.2" y="828.7" font-size="10.1" font-weight="700" fill="#24272A" text-anchor="middle" dominant-baseline="middle" transform="rotate(-46.5 216.2 828.7)">T06-14</text>
<polyline points="268.5,846.6 274.4,841.2" fill="none" stroke="#FAF8F3" stroke-width="3.4" stroke-linecap="butt"/>
<polyline points="268.5,846.6 263.1,840.7" fill="none" stroke="#2B2926" stroke-width="0.9" stroke-linecap="butt"/>
<path d="M263.1,840.7 A8.0,8.0 0 0 1 274.4,841.2" fill="none" stroke="#2B2926" stroke-width="0.7"/>
<polygon points="257.0,857.9 267.0,848.0 277.3,838.6 288.0,829.5 299.0,820.8 310.3,812.4 321.9,804.5 333.8,797.0 345.9,789.9 358.2,783.3 370.8,777.1 383.6,771.3 396.6,766.0 409.8,761.2 423.1,756.8 436.6,752.9 450.2,749.5 463.9,746.6 477.7,744.1 491.6,742.2 495.2,770.7 482.3,772.6 469.5,774.8 456.7,777.5 444.1,780.7 431.6,784.3 419.2,788.4 407.0,792.9 395.0,797.8 383.1,803.1 371.4,808.9 360.0,815.0 348.7,821.6 337.7,828.6 327.0,835.9 316.5,843.6 306.3,851.7 296.4,860.2 286.8,868.9 277.5,878.1" fill="#F4EFE5" stroke="#2B2926" stroke-width="1.3"/>
<text x="370.9" y="793.0" font-size="8.3" font-weight="700" fill="#24272A" text-anchor="middle" dominant-baseline="middle" transform="rotate(-26.2 370.9 793.0)">T06-CL</text>
<polygon points="588.4,742.2 602.3,744.1 616.1,746.6 629.8,749.5 643.4,752.9 656.9,756.8 670.2,761.2 683.4,766.0 696.4,771.3 709.2,777.1 721.8,783.3 734.1,789.9 746.2,797.0 758.1,804.5 769.7,812.4 781.0,820.8 792.0,829.5 802.7,838.6 813.0,848.0 823.0,857.9 802.5,878.1 793.2,868.9 783.6,860.2 773.7,851.7 763.5,843.6 753.0,835.9 742.3,828.6 731.3,821.6 720.0,815.0 708.6,808.9 696.9,803.1 685.0,797.8 673.0,792.9 660.8,788.4 648.4,784.3 635.9,780.7 623.3,777.5 610.5,774.8 597.7,772.6 584.8,770.7" fill="#F4EFE5" stroke="#2B2926" stroke-width="1.3"/>
<text x="709.1" y="793.0" font-size="8.3" font-weight="700" fill="#24272A" text-anchor="middle" dominant-baseline="middle" transform="rotate(26.2 709.1 793.0)">T06-CL</text>
<polygon points="227.3,891.7 236.8,880.1 246.7,868.8 257.0,857.9 277.5,878.1 268.0,888.2 258.8,898.6 250.0,909.4" fill="#F4EFE5" stroke="#2B2926" stroke-width="1.3"/>
<text x="234.5" y="868.0" font-size="7.8" font-weight="700" fill="#24272A" text-anchor="middle" dominant-baseline="middle" transform="rotate(-48.8 234.5 868.0)">T06-16</text>
<polygon points="251.5,903.4 267.3,885.0 260.3,879.0 244.5,897.4" fill="#FFFFFF" stroke="#2B2926" stroke-width="1.0"/>
<polyline points="252.6,902.1 245.6,896.1" fill="none" stroke="#8A847C" stroke-width="0.6" stroke-linecap="butt"/>
<polyline points="253.7,900.8 246.8,894.8" fill="none" stroke="#8A847C" stroke-width="0.6" stroke-linecap="butt"/>
<polyline points="254.9,899.5 247.9,893.5" fill="none" stroke="#8A847C" stroke-width="0.6" stroke-linecap="butt"/>
<polyline points="256.0,898.1 249.0,892.1" fill="none" stroke="#8A847C" stroke-width="0.6" stroke-linecap="butt"/>
<polyline points="257.1,896.8 250.2,890.8" fill="none" stroke="#8A847C" stroke-width="0.6" stroke-linecap="butt"/>
<polyline points="258.3,895.5 251.3,889.5" fill="none" stroke="#8A847C" stroke-width="0.6" stroke-linecap="butt"/>
<polyline points="259.4,894.2 252.4,888.2" fill="none" stroke="#8A847C" stroke-width="0.6" stroke-linecap="butt"/>
<polyline points="260.5,892.9 253.6,886.9" fill="none" stroke="#8A847C" stroke-width="0.6" stroke-linecap="butt"/>
<polyline points="261.7,891.6 254.7,885.6" fill="none" stroke="#8A847C" stroke-width="0.6" stroke-linecap="butt"/>
<polyline points="262.8,890.3 255.8,884.3" fill="none" stroke="#8A847C" stroke-width="0.6" stroke-linecap="butt"/>
<polyline points="263.9,889.0 256.9,883.0" fill="none" stroke="#8A847C" stroke-width="0.6" stroke-linecap="butt"/>
<polyline points="265.0,887.7 258.1,881.7" fill="none" stroke="#8A847C" stroke-width="0.6" stroke-linecap="butt"/>
<polyline points="266.2,886.3 259.2,880.3" fill="none" stroke="#8A847C" stroke-width="0.6" stroke-linecap="butt"/>
<line x1="250.6" y1="897.4" x2="257.3" y2="889.6" stroke="#24272A" stroke-width="1.8"/>
<polygon points="261.2,885.1 258.7,894.8 251.9,888.9" fill="#24272A"/>
<text x="241.7" y="907.7" font-size="8.5" font-weight="600" fill="#24272A" text-anchor="middle" dominant-baseline="middle">up</text>
<polygon points="249.7,869.3 233.3,888.3 240.3,894.3 256.7,875.3" fill="#FFFFFF" stroke="#2B2926" stroke-width="1.0"/>
<polyline points="248.6,870.6 255.5,876.7" fill="none" stroke="#8A847C" stroke-width="0.6" stroke-linecap="butt"/>
<polyline points="247.4,872.0 254.4,878.0" fill="none" stroke="#8A847C" stroke-width="0.6" stroke-linecap="butt"/>
<polyline points="246.2,873.4 253.2,879.4" fill="none" stroke="#8A847C" stroke-width="0.6" stroke-linecap="butt"/>
<polyline points="245.0,874.7 252.0,880.7" fill="none" stroke="#8A847C" stroke-width="0.6" stroke-linecap="butt"/>
<polyline points="243.9,876.1 250.8,882.1" fill="none" stroke="#8A847C" stroke-width="0.6" stroke-linecap="butt"/>
<polyline points="242.7,877.5 249.7,883.5" fill="none" stroke="#8A847C" stroke-width="0.6" stroke-linecap="butt"/>
<polyline points="241.5,878.8 248.5,884.8" fill="none" stroke="#8A847C" stroke-width="0.6" stroke-linecap="butt"/>
<polyline points="240.3,880.2 247.3,886.2" fill="none" stroke="#8A847C" stroke-width="0.6" stroke-linecap="butt"/>
<polyline points="239.2,881.5 246.1,887.5" fill="none" stroke="#8A847C" stroke-width="0.6" stroke-linecap="butt"/>
<polyline points="238.0,882.9 245.0,888.9" fill="none" stroke="#8A847C" stroke-width="0.6" stroke-linecap="butt"/>
<polyline points="236.8,884.3 243.8,890.3" fill="none" stroke="#8A847C" stroke-width="0.6" stroke-linecap="butt"/>
<polyline points="235.7,885.6 242.6,891.6" fill="none" stroke="#8A847C" stroke-width="0.6" stroke-linecap="butt"/>
<polyline points="234.5,887.0 241.5,893.0" fill="none" stroke="#8A847C" stroke-width="0.6" stroke-linecap="butt"/>
<line x1="250.6" y1="875.3" x2="243.3" y2="883.8" stroke="#24272A" stroke-width="1.8"/>
<polygon points="239.4,888.3 241.9,878.6 248.7,884.4" fill="#24272A"/>
<text x="259.5" y="865.0" font-size="8.5" font-weight="600" fill="#24272A" text-anchor="middle" dominant-baseline="middle"></text>
<polygon points="823.0,857.9 833.3,868.8 843.2,880.1 852.7,891.7 830.0,909.4 821.2,898.6 812.0,888.2 802.5,878.1" fill="#F4EFE5" stroke="#2B2926" stroke-width="1.3"/>
<text x="845.5" y="868.0" font-size="7.8" font-weight="700" fill="#24272A" text-anchor="middle" dominant-baseline="middle" transform="rotate(48.8 845.5 868.0)">T06-17</text>
<polygon points="835.5,897.4 819.7,879.0 812.7,885.0 828.5,903.4" fill="#FFFFFF" stroke="#2B2926" stroke-width="1.0"/>
<polyline points="834.4,896.1 827.4,902.1" fill="none" stroke="#8A847C" stroke-width="0.6" stroke-linecap="butt"/>
<polyline points="833.2,894.8 826.3,900.8" fill="none" stroke="#8A847C" stroke-width="0.6" stroke-linecap="butt"/>
<polyline points="832.1,893.5 825.1,899.5" fill="none" stroke="#8A847C" stroke-width="0.6" stroke-linecap="butt"/>
<polyline points="831.0,892.1 824.0,898.1" fill="none" stroke="#8A847C" stroke-width="0.6" stroke-linecap="butt"/>
<polyline points="829.8,890.8 822.9,896.8" fill="none" stroke="#8A847C" stroke-width="0.6" stroke-linecap="butt"/>
<polyline points="828.7,889.5 821.7,895.5" fill="none" stroke="#8A847C" stroke-width="0.6" stroke-linecap="butt"/>
<polyline points="827.6,888.2 820.6,894.2" fill="none" stroke="#8A847C" stroke-width="0.6" stroke-linecap="butt"/>
<polyline points="826.4,886.9 819.5,892.9" fill="none" stroke="#8A847C" stroke-width="0.6" stroke-linecap="butt"/>
<polyline points="825.3,885.6 818.3,891.6" fill="none" stroke="#8A847C" stroke-width="0.6" stroke-linecap="butt"/>
<polyline points="824.2,884.3 817.2,890.3" fill="none" stroke="#8A847C" stroke-width="0.6" stroke-linecap="butt"/>
<polyline points="823.1,883.0 816.1,889.0" fill="none" stroke="#8A847C" stroke-width="0.6" stroke-linecap="butt"/>
<polyline points="821.9,881.7 815.0,887.7" fill="none" stroke="#8A847C" stroke-width="0.6" stroke-linecap="butt"/>
<polyline points="820.8,880.3 813.8,886.3" fill="none" stroke="#8A847C" stroke-width="0.6" stroke-linecap="butt"/>
<line x1="829.4" y1="897.4" x2="822.7" y2="889.6" stroke="#24272A" stroke-width="1.8"/>
<polygon points="818.8,885.1 828.1,888.9 821.3,894.8" fill="#24272A"/>
<text x="838.3" y="907.7" font-size="8.5" font-weight="600" fill="#24272A" text-anchor="middle" dominant-baseline="middle">up</text>
<polygon points="823.3,875.3 839.7,894.3 846.7,888.3 830.3,869.3" fill="#FFFFFF" stroke="#2B2926" stroke-width="1.0"/>
<polyline points="824.5,876.7 831.4,870.6" fill="none" stroke="#8A847C" stroke-width="0.6" stroke-linecap="butt"/>
<polyline points="825.6,878.0 832.6,872.0" fill="none" stroke="#8A847C" stroke-width="0.6" stroke-linecap="butt"/>
<polyline points="826.8,879.4 833.8,873.4" fill="none" stroke="#8A847C" stroke-width="0.6" stroke-linecap="butt"/>
<polyline points="828.0,880.7 835.0,874.7" fill="none" stroke="#8A847C" stroke-width="0.6" stroke-linecap="butt"/>
<polyline points="829.2,882.1 836.1,876.1" fill="none" stroke="#8A847C" stroke-width="0.6" stroke-linecap="butt"/>
<polyline points="830.3,883.5 837.3,877.5" fill="none" stroke="#8A847C" stroke-width="0.6" stroke-linecap="butt"/>
<polyline points="831.5,884.8 838.5,878.8" fill="none" stroke="#8A847C" stroke-width="0.6" stroke-linecap="butt"/>
<polyline points="832.7,886.2 839.7,880.2" fill="none" stroke="#8A847C" stroke-width="0.6" stroke-linecap="butt"/>
<polyline points="833.9,887.5 840.8,881.5" fill="none" stroke="#8A847C" stroke-width="0.6" stroke-linecap="butt"/>
<polyline points="835.0,888.9 842.0,882.9" fill="none" stroke="#8A847C" stroke-width="0.6" stroke-linecap="butt"/>
<polyline points="836.2,890.3 843.2,884.3" fill="none" stroke="#8A847C" stroke-width="0.6" stroke-linecap="butt"/>
<polyline points="837.4,891.6 844.3,885.6" fill="none" stroke="#8A847C" stroke-width="0.6" stroke-linecap="butt"/>
<polyline points="838.5,893.0 845.5,887.0" fill="none" stroke="#8A847C" stroke-width="0.6" stroke-linecap="butt"/>
<line x1="829.4" y1="875.3" x2="836.7" y2="883.8" stroke="#24272A" stroke-width="1.8"/>
<polygon points="840.6,888.3 831.3,884.4 838.1,878.6" fill="#24272A"/>
<text x="820.5" y="865.0" font-size="8.5" font-weight="600" fill="#24272A" text-anchor="middle" dominant-baseline="middle"></text>
<polygon points="96.7,813.9 108.2,798.6 120.2,783.8 132.8,769.3 145.8,755.3 159.3,741.8 173.3,728.8 187.8,716.2 202.6,704.2 217.9,692.7 233.6,681.7 249.6,671.3 266.0,661.4 282.7,652.1 299.8,643.5 317.1,635.4 334.7,627.9 352.6,621.0 370.7,614.8 389.0,609.2 407.4,604.3 426.1,600.0 444.8,596.3 463.7,593.3 482.7,591.0 501.8,589.3 520.9,588.3 540.0,588.0 559.1,588.3 578.2,589.3 597.3,591.0 616.3,593.3 635.2,596.3 653.9,600.0 672.6,604.3 691.0,609.2 709.3,614.8 727.4,621.0 745.3,627.9 762.9,635.4 780.2,643.5 797.3,652.1 814.0,661.4 830.4,671.3 846.4,681.7 862.1,692.7 877.4,704.2 892.2,716.2 906.7,728.8 920.7,741.8 934.2,755.3 947.2,769.3 959.8,783.8 971.8,798.6 983.3,813.9 941.3,844.5 930.9,830.6 920.0,817.2 908.6,804.1 896.8,791.4 884.6,779.2 871.9,767.4 858.8,756.0 845.4,745.1 831.5,734.7 817.4,724.8 802.8,715.4 788.0,706.5 772.9,698.1 757.4,690.2 741.7,682.9 725.8,676.1 709.6,669.9 693.3,664.3 676.7,659.2 660.0,654.7 643.1,650.8 626.1,647.5 609.0,644.8 591.8,642.7 574.6,641.2 557.3,640.3 540.0,640.0 522.7,640.3 505.4,641.2 488.2,642.7 471.0,644.8 453.9,647.5 436.9,650.8 420.0,654.7 403.3,659.2 386.7,664.3 370.4,669.9 354.2,676.1 338.3,682.9 322.6,690.2 307.1,698.1 292.0,706.5 277.2,715.4 262.6,724.8 248.5,734.7 234.6,745.1 221.2,756.0 208.1,767.4 195.4,779.2 183.2,791.4 171.4,804.1 160.0,817.2 149.1,830.6 138.7,844.5" fill="#D3E6C3" stroke="#2B2926" stroke-width="1.3"/>
<text x="279.0" y="677.9" font-size="11.0" font-weight="700" fill="#24272A" text-anchor="middle" dominant-baseline="middle" transform="rotate(-30.0 279.0 677.9)">T06-15</text>
<text x="279.0" y="690.8" font-size="9.0" font-weight="400" fill="#4E575B" text-anchor="middle" dominant-baseline="middle" transform="rotate(-30.0 279.0 690.8)">Garden gallery</text>
<polyline points="96.7,813.9 102.3,806.2 108.2,798.6 114.1,791.1 120.2,783.8 126.4,776.5 132.8,769.3 139.2,762.3 145.8,755.3 152.5,748.5 159.3,741.8 166.3,735.2 173.3,728.8 180.5,722.4 187.8,716.2 195.1,710.1 202.6,704.2 210.2,698.3 217.9,692.7 225.7,687.1 233.6,681.7 241.5,676.4 249.6,671.3 257.8,666.3 266.0,661.4 274.3,656.7 282.7,652.1 291.2,647.7 299.8,643.5 308.4,639.3 317.1,635.4 325.9,631.6 334.7,627.9 343.6,624.4 352.6,621.0 361.6,617.9 370.7,614.8 379.8,611.9 389.0,609.2" fill="none" stroke="#8A847A" stroke-width="3.4" stroke-linecap="butt"/>
<polyline points="691.0,609.2 700.2,611.9 709.3,614.8 718.4,617.9 727.4,621.0 736.4,624.4 745.3,627.9 754.1,631.6 762.9,635.4 771.6,639.3 780.2,643.5 788.8,647.7 797.3,652.1 805.7,656.7 814.0,661.4 822.2,666.3 830.4,671.3 838.5,676.4 846.4,681.7 854.3,687.1 862.1,692.7 869.8,698.3 877.4,704.2 884.9,710.1 892.2,716.2 899.5,722.4 906.7,728.8 913.7,735.2 920.7,741.8 927.5,748.5 934.2,755.3 940.8,762.3 947.2,769.3 953.6,776.5 959.8,783.8 965.9,791.1 971.8,798.6 977.7,806.2 983.3,813.9" fill="none" stroke="#8A847A" stroke-width="3.4" stroke-linecap="butt"/>
<text x="852.7" y="672.4" font-size="8.5" font-weight="400" fill="#4E575B" text-anchor="middle" dominant-baseline="middle" transform="rotate(34.0 852.7 672.4)">low stone wall, glass roof over</text>
<polyline points="462.8,566.2 468.4,568.8 474.1,571.2 479.8,573.4 485.6,575.4 491.5,577.2 497.4,578.8 503.4,580.2 509.4,581.3 515.5,582.3 521.6,583.0 527.7,583.6 533.9,583.9 540.0,584.0 546.1,583.9 552.3,583.6 558.4,583.0 564.5,582.3 570.6,581.3 576.6,580.2 582.6,578.8 588.5,577.2 594.4,575.4 600.2,573.4 605.9,571.2 611.6,568.8 617.2,566.2" fill="none" stroke="#6F8F5A" stroke-width="1.4" stroke-linecap="butt" stroke-dasharray="6 4"/>
<line x1="540.0" y1="612.0" x2="540.0" y2="574.8" stroke="#4E6E3A" stroke-width="1.8"/>
<polygon points="540.0,568.8 544.5,577.8 535.5,577.8" fill="#4E6E3A"/>
<text x="540.0" y="556.0" font-size="9.0" font-weight="700" fill="#4E6E3A" text-anchor="middle" dominant-baseline="middle">into the upper garden dome (T09-02)</text>
<polygon points="558.2,656.2 556.1,689.7 580.0,691.2 582.1,657.7" fill="#FFFFFF" stroke="#2B2926" stroke-width="1.0"/>
<polyline points="558.0,658.3 582.0,659.8" fill="none" stroke="#8A847C" stroke-width="0.6" stroke-linecap="butt"/>
<polyline points="557.9,660.4 581.9,661.9" fill="none" stroke="#8A847C" stroke-width="0.6" stroke-linecap="butt"/>
<polyline points="557.8,662.5 581.7,664.0" fill="none" stroke="#8A847C" stroke-width="0.6" stroke-linecap="butt"/>
<polyline points="557.6,664.6 581.6,666.1" fill="none" stroke="#8A847C" stroke-width="0.6" stroke-linecap="butt"/>
<polyline points="557.5,666.7 581.5,668.2" fill="none" stroke="#8A847C" stroke-width="0.6" stroke-linecap="butt"/>
<polyline points="557.4,668.8 581.3,670.3" fill="none" stroke="#8A847C" stroke-width="0.6" stroke-linecap="butt"/>
<polyline points="557.2,670.9 581.2,672.4" fill="none" stroke="#8A847C" stroke-width="0.6" stroke-linecap="butt"/>
<polyline points="557.1,673.0 581.1,674.5" fill="none" stroke="#8A847C" stroke-width="0.6" stroke-linecap="butt"/>
<polyline points="557.0,675.1 580.9,676.6" fill="none" stroke="#8A847C" stroke-width="0.6" stroke-linecap="butt"/>
<polyline points="556.8,677.2 580.8,678.7" fill="none" stroke="#8A847C" stroke-width="0.6" stroke-linecap="butt"/>
<polyline points="556.7,679.2 580.7,680.8" fill="none" stroke="#8A847C" stroke-width="0.6" stroke-linecap="butt"/>
<polyline points="556.6,681.3 580.5,682.9" fill="none" stroke="#8A847C" stroke-width="0.6" stroke-linecap="butt"/>
<polyline points="556.4,683.4 580.4,684.9" fill="none" stroke="#8A847C" stroke-width="0.6" stroke-linecap="butt"/>
<polyline points="556.3,685.5 580.3,687.0" fill="none" stroke="#8A847C" stroke-width="0.6" stroke-linecap="butt"/>
<polyline points="556.2,687.6 580.1,689.1" fill="none" stroke="#8A847C" stroke-width="0.6" stroke-linecap="butt"/>
<line x1="569.9" y1="660.9" x2="568.7" y2="680.5" stroke="#24272A" stroke-width="1.8"/>
<polygon points="568.3,686.5 564.4,677.2 573.3,677.8" fill="#24272A"/>
<text x="570.7" y="647.4" font-size="8.5" font-weight="600" fill="#24272A" text-anchor="middle" dominant-baseline="middle">up</text>
<polygon points="555.6,689.9 568.0,690.5 580.5,691.4 579.4,702.6 567.3,701.7 555.2,701.1" fill="#FFFFFF" stroke="#2B2926" stroke-width="1.0"/>
<polygon points="555.4,700.9 553.2,734.4 577.2,735.9 579.3,702.4" fill="#FFFFFF" stroke="#2B2926" stroke-width="1.0"/>
<polyline points="555.2,703.0 579.2,704.5" fill="none" stroke="#8A847C" stroke-width="0.6" stroke-linecap="butt"/>
<polyline points="555.1,705.1 579.0,706.6" fill="none" stroke="#8A847C" stroke-width="0.6" stroke-linecap="butt"/>
<polyline points="555.0,707.2 578.9,708.7" fill="none" stroke="#8A847C" stroke-width="0.6" stroke-linecap="butt"/>
<polyline points="554.8,709.3 578.8,710.8" fill="none" stroke="#8A847C" stroke-width="0.6" stroke-linecap="butt"/>
<polyline points="554.7,711.4 578.6,712.9" fill="none" stroke="#8A847C" stroke-width="0.6" stroke-linecap="butt"/>
<polyline points="554.6,713.5 578.5,715.0" fill="none" stroke="#8A847C" stroke-width="0.6" stroke-linecap="butt"/>
<polyline points="554.4,715.6 578.4,717.1" fill="none" stroke="#8A847C" stroke-width="0.6" stroke-linecap="butt"/>
<polyline points="554.3,717.7 578.2,719.2" fill="none" stroke="#8A847C" stroke-width="0.6" stroke-linecap="butt"/>
<polyline points="554.2,719.8 578.1,721.3" fill="none" stroke="#8A847C" stroke-width="0.6" stroke-linecap="butt"/>
<polyline points="554.0,721.9 578.0,723.4" fill="none" stroke="#8A847C" stroke-width="0.6" stroke-linecap="butt"/>
<polyline points="553.9,724.0 577.9,725.5" fill="none" stroke="#8A847C" stroke-width="0.6" stroke-linecap="butt"/>
<polyline points="553.8,726.1 577.7,727.6" fill="none" stroke="#8A847C" stroke-width="0.6" stroke-linecap="butt"/>
<polyline points="553.6,728.2 577.6,729.7" fill="none" stroke="#8A847C" stroke-width="0.6" stroke-linecap="butt"/>
<polyline points="553.5,730.2 577.5,731.8" fill="none" stroke="#8A847C" stroke-width="0.6" stroke-linecap="butt"/>
<polyline points="553.4,732.3 577.3,733.9" fill="none" stroke="#8A847C" stroke-width="0.6" stroke-linecap="butt"/>
<line x1="567.1" y1="705.7" x2="565.8" y2="725.2" stroke="#24272A" stroke-width="1.8"/>
<polygon points="565.5,731.2 561.5,721.9 570.5,722.5" fill="#24272A"/>
<text x="567.9" y="692.1" font-size="8.5" font-weight="600" fill="#24272A" text-anchor="middle" dominant-baseline="middle"></text>
<polygon points="499.2,730.1 516.8,730.1 516.8,747.7 499.2,747.7" fill="#FFFFFF" stroke="#2B2926" stroke-width="1.0"/>
<polyline points="499.2,730.1 516.8,747.7" fill="none" stroke="#8A847C" stroke-width="0.6" stroke-linecap="butt"/>
<polyline points="516.8,730.1 499.2,747.7" fill="none" stroke="#8A847C" stroke-width="0.6" stroke-linecap="butt"/>
<text x="509.3" y="754.0" font-size="8.0" font-weight="600" fill="#24272A" text-anchor="middle" dominant-baseline="middle">lift</text>
<polyline points="252.5,911.4 260.5,901.5 268.9,891.9 277.6,882.6 286.6,873.6 295.9,864.9 305.5,856.5 315.4,848.5 325.6,840.9 336.0,833.6 346.7,826.6 357.6,820.1 368.7,813.9 380.1,808.1 391.6,802.7 403.3,797.8 415.2,793.2 427.3,789.1 439.4,785.3 451.7,782.0 464.2,779.2 476.7,776.7 489.2,774.8 501.9,773.2 514.6,772.1 527.3,771.4 540.0,771.2 552.7,771.4 565.4,772.1 578.1,773.2 590.8,774.8 603.3,776.7 615.8,779.2 628.3,782.0 640.6,785.3 652.7,789.1 664.8,793.2 676.7,797.8 688.4,802.7 699.9,808.1 711.3,813.9 722.4,820.1 733.3,826.6 744.0,833.6 754.4,840.9 764.6,848.5 774.5,856.5 784.1,864.9 793.4,873.6 802.4,882.6 811.1,891.9 819.5,901.5 827.5,911.4" fill="none" stroke="#8A847A" stroke-width="3.4" stroke-linecap="butt"/>
<text x="418.0" y="800.7" font-size="9.0" font-weight="400" fill="#4E575B" text-anchor="middle" dominant-baseline="middle" transform="rotate(-20.0 418.0 800.7)">retaining wall</text>
<line x1="24.0" y1="968.0" x2="104.0" y2="968.0" stroke="#24272A" stroke-width="2"/>
<line x1="24.0" y1="964.0" x2="24.0" y2="972.0" stroke="#24272A" stroke-width="1.5"/>
<text x="24.0" y="982.0" font-size="10.0" font-weight="400" fill="#24272A" text-anchor="middle" dominant-baseline="middle">0</text>
<line x1="64.0" y1="964.0" x2="64.0" y2="972.0" stroke="#24272A" stroke-width="1.5"/>
<text x="64.0" y="982.0" font-size="10.0" font-weight="400" fill="#24272A" text-anchor="middle" dominant-baseline="middle">5</text>
<line x1="104.0" y1="964.0" x2="104.0" y2="972.0" stroke="#24272A" stroke-width="1.5"/>
<text x="104.0" y="982.0" font-size="10.0" font-weight="400" fill="#24272A" text-anchor="middle" dominant-baseline="middle">10 m</text>
<line x1="820.0" y1="951.0" x2="820.0" y2="971.0" stroke="#4E575B" stroke-width="1.6"/><polygon points="820.0,979.0 815.0,969.0 825.0,969.0" fill="#4E575B"/>
<text x="829.0" y="965.0" font-size="10.0" font-weight="400" fill="#4E575B" text-anchor="start" dominant-baseline="middle">toward the palace and the start</text>
</svg>